<svg id="图层_1" data-name="图层 1" xmlns="http://www.w3.org/2000/svg" xmlns:xlink="http://www.w3.org/1999/xlink" viewBox="0 0 249.37 121.7"><defs><style>.cls-1,.cls-10,.cls-16,.cls-17,.cls-3,.cls-6,.cls-7{fill:none;}.cls-2{fill:#fff;}.cls-10,.cls-17,.cls-3,.cls-6,.cls-7{stroke:#000;}.cls-10,.cls-16,.cls-3,.cls-7{stroke-linejoin:round;}.cls-17,.cls-3{stroke-width:0.8px;}.cls-4{clip-path:url(#clip-path);}.cls-5{fill:pink;}.cls-17,.cls-6{stroke-miterlimit:10;}.cls-16,.cls-17,.cls-7{stroke-linecap:square;}.cls-8{clip-path:url(#clip-path-7);}.cls-9{fill:#e50;}.cls-10{stroke-width:0.75px;}.cls-11{clip-path:url(#clip-path-14);}.cls-12{fill:#add8e6;}.cls-13{clip-path:url(#clip-path-27);}.cls-14{fill:#90ee90;}.cls-15{clip-path:url(#clip-path-40);}.cls-16{stroke:#ff7f0e;}.cls-18{clip-path:url(#clip-path-50);}.cls-19{clip-path:url(#clip-path-56);}.cls-20{clip-path:url(#clip-path-57);}.cls-21{clip-path:url(#clip-path-58);}.cls-22{clip-path:url(#clip-path-59);}.cls-23{clip-path:url(#clip-path-60);}.cls-24{clip-path:url(#clip-path-61);}.cls-25{clip-path:url(#clip-path-62);}.cls-26{clip-path:url(#clip-path-63);}.cls-27{clip-path:url(#clip-path-64);}.cls-28{clip-path:url(#clip-path-65);}.cls-29{clip-path:url(#clip-path-66);}.cls-30{clip-path:url(#clip-path-67);}.cls-31{clip-path:url(#clip-path-68);}.cls-32{clip-path:url(#clip-path-75);}.cls-33{clip-path:url(#clip-path-76);}.cls-34{clip-path:url(#clip-path-77);}.cls-35{clip-path:url(#clip-path-78);}.cls-36{clip-path:url(#clip-path-79);}.cls-37{clip-path:url(#clip-path-80);}.cls-38{clip-path:url(#clip-path-87);}.cls-39{clip-path:url(#clip-path-88);}.cls-40{clip-path:url(#clip-path-89);}.cls-41{clip-path:url(#clip-path-90);}.cls-42{clip-path:url(#clip-path-91);}.cls-43{clip-path:url(#clip-path-92);}.cls-44{clip-path:url(#clip-path-93);}.cls-45{clip-path:url(#clip-path-94);}.cls-46{clip-path:url(#clip-path-95);}.cls-47{clip-path:url(#clip-path-96);}.cls-48{clip-path:url(#clip-path-97);}.cls-49{clip-path:url(#clip-path-98);}.cls-50{clip-path:url(#clip-path-99);}</style><clipPath id="clip-path"><rect class="cls-1" x="37.62" y="19.45" width="81.97" height="79.88"/></clipPath><clipPath id="clip-path-7"><rect class="cls-1" x="45.85" y="64.73" width="10.88" height="10.88"/></clipPath><clipPath id="clip-path-14"><rect class="cls-1" x="45.85" y="53.06" width="10.88" height="10.88"/></clipPath><clipPath id="clip-path-27"><rect class="cls-1" x="73.17" y="17.64" width="10.88" height="10.88"/></clipPath><clipPath id="clip-path-40"><rect class="cls-1" x="100.49" y="72.11" width="10.88" height="10.88"/></clipPath><clipPath id="clip-path-50"><rect class="cls-1" x="160.2" y="19.45" width="81.97" height="79.88"/></clipPath><clipPath id="clip-path-56"><rect class="cls-1" x="168.43" y="64.67" width="10.88" height="10.88"/></clipPath><clipPath id="clip-path-57"><rect class="cls-1" x="168.43" y="73.23" width="10.88" height="10.88"/></clipPath><clipPath id="clip-path-58"><rect class="cls-1" x="168.43" y="73.45" width="10.88" height="10.88"/></clipPath><clipPath id="clip-path-59"><rect class="cls-1" x="168.43" y="53.02" width="10.88" height="10.87"/></clipPath><clipPath id="clip-path-60"><rect class="cls-1" x="168.43" y="70.77" width="10.88" height="10.88"/></clipPath><clipPath id="clip-path-61"><rect class="cls-1" x="168.43" y="71.71" width="10.88" height="10.88"/></clipPath><clipPath id="clip-path-62"><rect class="cls-1" x="168.43" y="70.24" width="10.88" height="10.88"/></clipPath><clipPath id="clip-path-63"><rect class="cls-1" x="168.43" y="62.31" width="10.88" height="10.88"/></clipPath><clipPath id="clip-path-64"><rect class="cls-1" x="168.43" y="59.21" width="10.88" height="10.88"/></clipPath><clipPath id="clip-path-65"><rect class="cls-1" x="168.43" y="67.5" width="10.88" height="10.88"/></clipPath><clipPath id="clip-path-66"><rect class="cls-1" x="168.43" y="71.71" width="10.88" height="10.88"/></clipPath><clipPath id="clip-path-67"><rect class="cls-1" x="168.43" y="56.74" width="10.88" height="10.87"/></clipPath><clipPath id="clip-path-68"><rect class="cls-1" x="168.43" y="65.25" width="10.88" height="10.88"/></clipPath><clipPath id="clip-path-75"><rect class="cls-1" x="195.75" y="31.98" width="10.88" height="10.88"/></clipPath><clipPath id="clip-path-76"><rect class="cls-1" x="195.75" y="19.55" width="10.88" height="10.88"/></clipPath><clipPath id="clip-path-77"><rect class="cls-1" x="195.75" y="33.55" width="10.88" height="10.88"/></clipPath><clipPath id="clip-path-78"><rect class="cls-1" x="195.75" y="30.65" width="10.88" height="10.88"/></clipPath><clipPath id="clip-path-79"><rect class="cls-1" x="195.75" y="29.45" width="10.88" height="10.88"/></clipPath><clipPath id="clip-path-80"><rect class="cls-1" x="195.75" y="17.64" width="10.88" height="10.88"/></clipPath><clipPath id="clip-path-87"><rect class="cls-1" x="223.07" y="59.87" width="10.88" height="10.88"/></clipPath><clipPath id="clip-path-88"><rect class="cls-1" x="223.07" y="55.91" width="10.88" height="10.87"/></clipPath><clipPath id="clip-path-89"><rect class="cls-1" x="223.07" y="59.21" width="10.88" height="10.88"/></clipPath><clipPath id="clip-path-90"><rect class="cls-1" x="223.07" y="69.08" width="10.88" height="10.88"/></clipPath><clipPath id="clip-path-91"><rect class="cls-1" x="223.07" y="64.1" width="10.88" height="10.88"/></clipPath><clipPath id="clip-path-92"><rect class="cls-1" x="223.07" y="73.94" width="10.88" height="10.88"/></clipPath><clipPath id="clip-path-93"><rect class="cls-1" x="223.07" y="72.3" width="10.88" height="10.88"/></clipPath><clipPath id="clip-path-94"><rect class="cls-1" x="223.07" y="73.65" width="10.88" height="10.88"/></clipPath><clipPath id="clip-path-95"><rect class="cls-1" x="223.07" y="73.36" width="10.88" height="10.88"/></clipPath><clipPath id="clip-path-96"><rect class="cls-1" x="223.07" y="66.52" width="10.88" height="10.88"/></clipPath><clipPath id="clip-path-97"><rect class="cls-1" x="223.07" y="71.32" width="10.88" height="10.88"/></clipPath><clipPath id="clip-path-98"><rect class="cls-1" x="223.07" y="65.56" width="10.88" height="10.88"/></clipPath><clipPath id="clip-path-99"><rect class="cls-1" x="223.07" y="72.05" width="10.88" height="10.88"/></clipPath></defs><rect class="cls-2" width="249.37" height="121.7"/><rect class="cls-2" x="37.62" y="19.45" width="81.97" height="79.88"/><line class="cls-3" x1="51.28" y1="99.33" x2="51.28" y2="102.83"/><path d="M47.2,106.49l.14,2H47.2a2.53,2.53,0,0,0-.78-1.3,1.88,1.88,0,0,0-1.21-.41,2.05,2.05,0,0,0-1.08.31,2,2,0,0,0-.75,1,4.36,4.36,0,0,0-.27,1.64,3.33,3.33,0,0,0,.26,1.4,1.84,1.84,0,0,0,.78.91,2.14,2.14,0,0,0,1.19.32,2,2,0,0,0,1-.25,3.37,3.37,0,0,0,1-1l.13.09a3.17,3.17,0,0,1-1,1.17,2.82,2.82,0,0,1-1.42.36,2.67,2.67,0,0,1-2.29-1.09,3.11,3.11,0,0,1-.61-1.93,3.42,3.42,0,0,1,.39-1.64,2.93,2.93,0,0,1,1.11-1.15,3,3,0,0,1,1.53-.41,2.84,2.84,0,0,1,1.28.31.61.61,0,0,0,.26.1.32.32,0,0,0,.21-.09.74.74,0,0,0,.16-.32Z"/><path d="M47.68,106.62h1.61l3.64,4.47v-3.43a1.41,1.41,0,0,0-.12-.7.72.72,0,0,0-.52-.18h-.2v-.16h2.07v.16H54a.63.63,0,0,0-.54.23,1.3,1.3,0,0,0-.1.65v5h-.15l-3.93-4.79v3.66a1.24,1.24,0,0,0,.11.69.67.67,0,0,0,.52.19h.21v.16H48v-.16h.21a.6.6,0,0,0,.54-.23,1.36,1.36,0,0,0,.1-.65V107.4a3.3,3.3,0,0,0-.4-.39,1.66,1.66,0,0,0-.38-.19,1.76,1.76,0,0,0-.38,0Z"/><path d="M54.18,106.62h1.61l3.63,4.47v-3.43a1.45,1.45,0,0,0-.11-.7.73.73,0,0,0-.53-.18h-.19v-.16h2.07v.16h-.21a.63.63,0,0,0-.54.23,1.3,1.3,0,0,0-.1.65v5h-.15l-3.94-4.79v3.66a1.22,1.22,0,0,0,.12.69.66.66,0,0,0,.51.19h.22v.16H54.49v-.16h.21a.6.6,0,0,0,.54-.23,1.36,1.36,0,0,0,.1-.65V107.4a3.3,3.3,0,0,0-.4-.39,1.57,1.57,0,0,0-.39-.19,1.66,1.66,0,0,0-.37,0Z"/><line class="cls-3" x1="78.61" y1="99.33" x2="78.61" y2="102.83"/><path d="M68.6,110.26l-1-2.41-1,2.41Zm.13.32H66.42l-.41,1a1.4,1.4,0,0,0-.14.51.29.29,0,0,0,.12.25,1.09,1.09,0,0,0,.56.13v.16H64.68v-.16a1,1,0,0,0,.48-.17,3,3,0,0,0,.5-.86l2.1-4.9h.15l2.07,5a2.16,2.16,0,0,0,.45.77.93.93,0,0,0,.58.2v.16H68.66v-.16a.83.83,0,0,0,.47-.12.3.3,0,0,0,.13-.25,1.85,1.85,0,0,0-.17-.6Z"/><path d="M71,106.62h1.61l3.63,4.47v-3.43a1.45,1.45,0,0,0-.11-.7.73.73,0,0,0-.53-.18h-.19v-.16h2.07v.16h-.21a.63.63,0,0,0-.54.23,1.3,1.3,0,0,0-.1.65v5h-.15l-3.94-4.79v3.66a1.22,1.22,0,0,0,.12.69.66.66,0,0,0,.51.19h.22v.16H71.31v-.16h.21a.6.6,0,0,0,.54-.23,1.36,1.36,0,0,0,.1-.65V107.4a3.3,3.3,0,0,0-.4-.39,1.57,1.57,0,0,0-.39-.19,1.66,1.66,0,0,0-.37,0Z"/><path d="M79.46,112.15a3.94,3.94,0,0,0,.93.12,2.21,2.21,0,0,0,1.69-.71,3.12,3.12,0,0,0,0-3.89,2.28,2.28,0,0,0-1.72-.72,3.9,3.9,0,0,0-.9.13Zm-1.7.43v-.16H78a.59.59,0,0,0,.54-.25,1.54,1.54,0,0,0,.09-.64v-3.86a1.31,1.31,0,0,0-.12-.7.66.66,0,0,0-.51-.19h-.22v-.16h2.43a5.31,5.31,0,0,1,2,.31,2.44,2.44,0,0,1,1.13,1,3.19,3.19,0,0,1,.42,1.63,2.92,2.92,0,0,1-.76,2.07,3.29,3.29,0,0,1-2.58.94Z"/><path d="M86,109.54l.41.07a1.78,1.78,0,0,0,.31,0,1.09,1.09,0,0,0,.79-.35,1.34,1.34,0,0,0,.33-.92,1.61,1.61,0,0,0-.16-.72,1.1,1.1,0,0,0-.45-.5,1.47,1.47,0,0,0-.66-.17,3,3,0,0,0-.57.09Zm0,.25v1.74c0,.37,0,.6.12.69a.62.62,0,0,0,.51.2h.22v.16H84.25v-.16h.23a.61.61,0,0,0,.54-.25,1.6,1.6,0,0,0,.08-.64v-3.86A1.41,1.41,0,0,0,85,107a.67.67,0,0,0-.5-.19h-.23v-.16h2.18a3.82,3.82,0,0,1,1.26.17,1.8,1.8,0,0,1,.78.55,1.44,1.44,0,0,1,.32.93,1.56,1.56,0,0,1-.49,1.19,1.91,1.91,0,0,1-1.36.46l-.46,0C86.31,109.87,86.13,109.83,86,109.79Z"/><path d="M92,108.44v1.37h-.14a1.84,1.84,0,0,0-.42-.88,1,1,0,0,0-.67-.24.77.77,0,0,0-.5.16.48.48,0,0,0-.19.36.62.62,0,0,0,.14.43,1.44,1.44,0,0,0,.56.38l.64.31c.59.3.89.68.89,1.15a1.06,1.06,0,0,1-.41.88,1.48,1.48,0,0,1-.93.34,3.59,3.59,0,0,1-.85-.13.85.85,0,0,0-.24,0,.15.15,0,0,0-.15.1h-.15V111.2h.15a1.59,1.59,0,0,0,.47.94,1.11,1.11,0,0,0,.78.3.61.61,0,0,0,.48-.18.55.55,0,0,0,.2-.43.67.67,0,0,0-.21-.5,4.07,4.07,0,0,0-.86-.52,2.36,2.36,0,0,1-.83-.58,1,1,0,0,1-.19-.63,1.09,1.09,0,0,1,.34-.83,1.24,1.24,0,0,1,.88-.33,2.6,2.6,0,0,1,.58.1,1.32,1.32,0,0,0,.29.06.18.18,0,0,0,.11,0,.44.44,0,0,0,.09-.13Z"/><line class="cls-3" x1="105.93" y1="99.33" x2="105.93" y2="102.83"/><path d="M101.43,110.26l-1-2.41-1,2.41Zm.12.32H99.24l-.41,1a1.64,1.64,0,0,0-.14.51.3.3,0,0,0,.13.25,1.08,1.08,0,0,0,.55.13v.16H97.5v-.16a1,1,0,0,0,.49-.17,3.31,3.31,0,0,0,.49-.86l2.1-4.9h.15l2.07,5a2.51,2.51,0,0,0,.45.77,1,1,0,0,0,.58.2v.16h-2.35v-.16a.87.87,0,0,0,.48-.12.29.29,0,0,0,.12-.25,1.85,1.85,0,0,0-.17-.6Z"/><path d="M105.81,107v2.35h1.3a1,1,0,0,0,.69-.15,1,1,0,0,0,.25-.71h.17v2.07h-.17a2.45,2.45,0,0,0-.12-.56.56.56,0,0,0-.26-.24,1.29,1.29,0,0,0-.56-.09h-1.3v2a1.55,1.55,0,0,0,0,.49s.06.09.11.13a.68.68,0,0,0,.34.05h1a2.18,2.18,0,0,0,.73-.08.94.94,0,0,0,.44-.28,3.4,3.4,0,0,0,.56-.81h.18l-.51,1.49h-4.59v-.16h.2a.82.82,0,0,0,.4-.1.43.43,0,0,0,.19-.21,1.87,1.87,0,0,0,0-.58v-3.87a1.45,1.45,0,0,0-.1-.71.79.79,0,0,0-.54-.17h-.2v-.16h4.59l.06,1.31h-.17a2,2,0,0,0-.21-.64.76.76,0,0,0-.33-.28,2.14,2.14,0,0,0-.61-.06Z"/><path d="M111.27,107v2.34h1.08a.79.79,0,0,0,.55-.17,1.15,1.15,0,0,0,.24-.65h.16v2h-.16a1.42,1.42,0,0,0-.1-.51.56.56,0,0,0-.24-.24.92.92,0,0,0-.45-.09h-1.08v1.88a1.8,1.8,0,0,0,.06.59.36.36,0,0,0,.18.19.8.8,0,0,0,.4.11h.22v.16h-2.56v-.16h.22a.61.61,0,0,0,.53-.22,1.28,1.28,0,0,0,.11-.67v-3.86a1.81,1.81,0,0,0-.07-.59.4.4,0,0,0-.18-.19.79.79,0,0,0-.39-.11h-.22v-.16H114l0,1.31h-.15a2,2,0,0,0-.27-.61,1,1,0,0,0-.37-.28,2,2,0,0,0-.68-.09Z"/><line class="cls-3" x1="37.62" y1="96.37" x2="34.12" y2="96.37"/><path d="M20.56,96.66a5.37,5.37,0,0,0,.31,2c.16.44.4.66.74.66a.73.73,0,0,0,.49-.21,1.36,1.36,0,0,0,.39-.72,8.89,8.89,0,0,0,.2-2.13,5.88,5.88,0,0,0-.21-1.7,1.56,1.56,0,0,0-.41-.71.67.67,0,0,0-1,.11,2.19,2.19,0,0,0-.43,1.16A11.48,11.48,0,0,0,20.56,96.66Zm-.86-.1A4.51,4.51,0,0,1,20,94.8a2.55,2.55,0,0,1,.82-1.1,1.36,1.36,0,0,1,.82-.28,1.56,1.56,0,0,1,1.23.7,3.71,3.71,0,0,1,.68,2.35,4.63,4.63,0,0,1-.3,1.76,2.27,2.27,0,0,1-.76,1,1.56,1.56,0,0,1-.9.33,1.64,1.64,0,0,1-1.42-1A4.05,4.05,0,0,1,19.7,96.56Z"/><path d="M25,98.64a.49.49,0,0,1,.34.15.5.5,0,0,1,.14.35.48.48,0,0,1-.14.34.51.51,0,0,1-.34.14.48.48,0,0,1-.35-.14.48.48,0,0,1-.14-.34.5.5,0,0,1,.14-.35A.49.49,0,0,1,25,98.64Z"/><path d="M27.31,96.66a5.37,5.37,0,0,0,.31,2c.16.44.4.66.74.66a.73.73,0,0,0,.49-.21,1.36,1.36,0,0,0,.39-.72,8.89,8.89,0,0,0,.2-2.13,5.88,5.88,0,0,0-.21-1.7,1.56,1.56,0,0,0-.41-.71.67.67,0,0,0-1,.11,2.19,2.19,0,0,0-.43,1.16A11.48,11.48,0,0,0,27.31,96.66Zm-.86-.1a4.51,4.51,0,0,1,.3-1.76,2.55,2.55,0,0,1,.82-1.1,1.36,1.36,0,0,1,.82-.28,1.56,1.56,0,0,1,1.23.7,3.71,3.71,0,0,1,.68,2.35,4.63,4.63,0,0,1-.3,1.76,2.27,2.27,0,0,1-.76,1,1.56,1.56,0,0,1-.9.33,1.64,1.64,0,0,1-1.42-1A4.05,4.05,0,0,1,26.45,96.56Z"/><line class="cls-3" x1="37.62" y1="76.32" x2="34.12" y2="76.32"/><path d="M20.56,76.61a5.35,5.35,0,0,0,.31,2c.16.44.4.66.74.66a.73.73,0,0,0,.49-.21,1.36,1.36,0,0,0,.39-.72,8.89,8.89,0,0,0,.2-2.13,5.88,5.88,0,0,0-.21-1.7,1.62,1.62,0,0,0-.41-.71.67.67,0,0,0-1,.11,2.19,2.19,0,0,0-.43,1.16A11.51,11.51,0,0,0,20.56,76.61Zm-.86-.11a4.51,4.51,0,0,1,.3-1.76,2.55,2.55,0,0,1,.82-1.1,1.42,1.42,0,0,1,.82-.28,1.56,1.56,0,0,1,1.23.7,3.71,3.71,0,0,1,.68,2.35,4.59,4.59,0,0,1-.3,1.76,2.37,2.37,0,0,1-.76,1,1.62,1.62,0,0,1-.9.32,1.64,1.64,0,0,1-1.42-1A4.05,4.05,0,0,1,19.7,76.5Z"/><path d="M25,78.59a.48.48,0,0,1,.34.14.52.52,0,0,1,.14.35.46.46,0,0,1-.14.34.51.51,0,0,1-.34.14.48.48,0,0,1-.35-.14.46.46,0,0,1-.14-.34.52.52,0,0,1,.14-.35A.48.48,0,0,1,25,78.59Z"/><path d="M30.24,78.3l-.41,1.14H26.31v-.16A15.82,15.82,0,0,0,28.5,77a3,3,0,0,0,.63-1.64,1.29,1.29,0,0,0-.35-.93A1.14,1.14,0,0,0,28,74a1.29,1.29,0,0,0-.79.26,1.48,1.48,0,0,0-.52.75h-.16a2,2,0,0,1,.56-1.24,1.57,1.57,0,0,1,1.13-.44,1.74,1.74,0,0,1,1.22.46,1.52,1.52,0,0,1,.48,1.1,2.26,2.26,0,0,1-.2.91,6,6,0,0,1-1.07,1.5c-.72.81-1.18,1.28-1.36,1.44H28.8a3.73,3.73,0,0,0,.67,0,.76.76,0,0,0,.35-.14.86.86,0,0,0,.26-.3Z"/><line class="cls-3" x1="37.62" y1="56.26" x2="34.12" y2="56.26"/><path d="M20.56,56.55a5.31,5.31,0,0,0,.31,2c.16.45.4.66.74.66A.73.73,0,0,0,22.1,59a1.32,1.32,0,0,0,.39-.72,8.89,8.89,0,0,0,.2-2.13,5.93,5.93,0,0,0-.21-1.7,1.62,1.62,0,0,0-.41-.71.68.68,0,0,0-1,.12A2.15,2.15,0,0,0,20.67,55,11.51,11.51,0,0,0,20.56,56.55Zm-.86-.11a4.51,4.51,0,0,1,.3-1.76,2.46,2.46,0,0,1,.82-1.09,1.37,1.37,0,0,1,.82-.29,1.56,1.56,0,0,1,1.23.7,3.73,3.73,0,0,1,.68,2.35,4.59,4.59,0,0,1-.3,1.76,2.37,2.37,0,0,1-.76,1,1.62,1.62,0,0,1-.9.32,1.64,1.64,0,0,1-1.42-1A4.05,4.05,0,0,1,19.7,56.44Z"/><path d="M25,58.53a.48.48,0,0,1,.34.14.52.52,0,0,1,.14.35.46.46,0,0,1-.14.34.51.51,0,0,1-.34.14.48.48,0,0,1-.35-.14.46.46,0,0,1-.14-.34.52.52,0,0,1,.14-.35A.48.48,0,0,1,25,58.53Z"/><path d="M28.79,57.19v-3l-2.1,3Zm1.52,0v.62h-.8v1.57h-.72V57.81H26.27v-.56l2.76-4h.48v3.89Z"/><line class="cls-3" x1="37.62" y1="36.2" x2="34.12" y2="36.2"/><path d="M20.56,36.49a5.4,5.4,0,0,0,.31,2c.16.44.4.65.74.65a.76.76,0,0,0,.49-.2,1.4,1.4,0,0,0,.39-.72,9,9,0,0,0,.2-2.14,5.93,5.93,0,0,0-.21-1.7,1.68,1.68,0,0,0-.41-.71.68.68,0,0,0-1,.12A2.15,2.15,0,0,0,20.67,35,11.63,11.63,0,0,0,20.56,36.49Zm-.86-.11a4.46,4.46,0,0,1,.3-1.75,2.44,2.44,0,0,1,.82-1.1,1.37,1.37,0,0,1,.82-.29,1.56,1.56,0,0,1,1.23.7,3.73,3.73,0,0,1,.68,2.35,4.68,4.68,0,0,1-.3,1.77,2.39,2.39,0,0,1-.76,1,1.55,1.55,0,0,1-.9.32,1.64,1.64,0,0,1-1.42-1A4,4,0,0,1,19.7,36.38Z"/><path d="M25,38.47a.48.48,0,0,1,.34.14.52.52,0,0,1,.14.35.48.48,0,0,1-.14.35.5.5,0,0,1-.34.13.48.48,0,0,1-.35-.13.48.48,0,0,1-.14-.35.52.52,0,0,1,.14-.35A.48.48,0,0,1,25,38.47Z"/><path d="M27.43,36.32a6.43,6.43,0,0,0-.08,1,2.81,2.81,0,0,0,.15.92A1.61,1.61,0,0,0,28,39a.69.69,0,0,0,.54.21.88.88,0,0,0,.68-.36,1.54,1.54,0,0,0,.31-1,2.67,2.67,0,0,0-.31-1.29,1,1,0,0,0-.85-.55A1.34,1.34,0,0,0,28,36,4.17,4.17,0,0,0,27.43,36.32Zm2.72-3.08v.16a3.37,3.37,0,0,0-.94.24,2.34,2.34,0,0,0-.73.53,3.54,3.54,0,0,0-.59.79,4,4,0,0,0-.39,1,2.25,2.25,0,0,1,1.27-.43,1.38,1.38,0,0,1,1.05.5,1.77,1.77,0,0,1,.45,1.26,2.29,2.29,0,0,1-.45,1.37,1.71,1.71,0,0,1-1.44.73,1.39,1.39,0,0,1-1-.39A2.68,2.68,0,0,1,26.51,37a3.79,3.79,0,0,1,.31-1.52,4.21,4.21,0,0,1,.92-1.27,3.33,3.33,0,0,1,1.14-.75,3.07,3.07,0,0,1,1-.2Z"/><path d="M10.39,81.1v-.24A1.93,1.93,0,0,0,10,79.57a1.17,1.17,0,0,0-.94-.43,1.2,1.2,0,0,0-.9.35,1.24,1.24,0,0,0-.36.92,3.52,3.52,0,0,0,.09.69Zm3.06-4.23v1.59l-2.79,2c0,.15,0,.28,0,.37V81a.53.53,0,0,1,0,.13H12.4a1.22,1.22,0,0,0,.69-.12.63.63,0,0,0,.2-.5v-.24h.16V82.8h-.16v-.23a.61.61,0,0,0-.24-.54,1.64,1.64,0,0,0-.65-.09H8.55a1.43,1.43,0,0,0-.71.12.69.69,0,0,0-.19.51v.23H7.49V80.63a5.17,5.17,0,0,1,.15-1.4,1.69,1.69,0,0,1,.5-.77A1.32,1.32,0,0,1,9,78.15a1.4,1.4,0,0,1,1,.36,2,2,0,0,1,.57,1.1l1.71-1.22a2.87,2.87,0,0,0,.79-.73,2,2,0,0,0,.24-.79Z"/><path d="M13.45,73.27l-5,2.3h4c.37,0,.6,0,.69-.12a.67.67,0,0,0,.19-.52v-.2h.16V76.8h-.16v-.21a.6.6,0,0,0-.23-.54,1.57,1.57,0,0,0-.65-.09H8.53A1.67,1.67,0,0,0,8,76a.67.67,0,0,0-.21.23,1.33,1.33,0,0,0-.09.53H7.49V75.11L12.15,73,7.49,70.82V69.14h.16v.2a.6.6,0,0,0,.23.54,1.19,1.19,0,0,0,.65.1h3.88c.37,0,.6,0,.69-.12a.67.67,0,0,0,.19-.52v-.2h.16v2.53h-.16v-.21a.6.6,0,0,0-.23-.54,1.36,1.36,0,0,0-.65-.1h-4l5,2.3Z"/><path d="M7.36,64.83H9.42V65a2.49,2.49,0,0,0-.95.28,1.64,1.64,0,0,0-.56.58,1.72,1.72,0,0,0-.2.79,1.09,1.09,0,0,0,.28.75.84.84,0,0,0,.63.3.71.71,0,0,0,.5-.19A4.63,4.63,0,0,0,10,66.2a9.77,9.77,0,0,1,.7-1.14,1.78,1.78,0,0,1,.56-.47,1.48,1.48,0,0,1,.68-.16,1.55,1.55,0,0,1,1.16.52,1.93,1.93,0,0,1,.49,1.35,3.6,3.6,0,0,1,0,.49q0,.13-.15.57a2.74,2.74,0,0,0-.14.54.3.3,0,0,0,.06.18.6.6,0,0,0,.27.09v.16h-2v-.16a3.06,3.06,0,0,0,1-.31,1.54,1.54,0,0,0,.53-.59,1.84,1.84,0,0,0,.2-.88,1.2,1.2,0,0,0-.29-.86.85.85,0,0,0-.68-.33,1,1,0,0,0-.45.13,1.32,1.32,0,0,0-.41.38c-.09.12-.27.43-.56.93a7.36,7.36,0,0,1-.69,1.09,1.81,1.81,0,0,1-.56.49,1.39,1.39,0,0,1-.68.16,1.49,1.49,0,0,1-1.1-.48,1.81,1.81,0,0,1-.46-1.26,2.62,2.62,0,0,1,.23-1,1.16,1.16,0,0,0,.11-.35.26.26,0,0,0-.06-.18A.49.49,0,0,0,7.36,65Z"/><path d="M7.82,62.06h2.35v-1.3a1.06,1.06,0,0,0-.15-.69,1,1,0,0,0-.71-.25v-.17h2.07v.17a2.45,2.45,0,0,0-.56.12.56.56,0,0,0-.24.26,1.36,1.36,0,0,0-.09.56v1.3h2A2.21,2.21,0,0,0,13,62a.3.3,0,0,0,.13-.12.66.66,0,0,0,.05-.34v-1a2.21,2.21,0,0,0-.08-.73.94.94,0,0,0-.28-.44,3.4,3.4,0,0,0-.81-.56v-.18l1.49.52v4.59h-.16v-.21a.82.82,0,0,0-.1-.4A.43.43,0,0,0,13,63a2.26,2.26,0,0,0-.58-.05H8.53a1.41,1.41,0,0,0-.71.11.78.78,0,0,0-.17.53v.21H7.49V59.17L8.8,59.1v.17a2.33,2.33,0,0,0-.64.21.76.76,0,0,0-.28.33,2.22,2.22,0,0,0-.06.62Z"/><path d="M7.49,50h.16a1,1,0,0,0,.2.48,1.71,1.71,0,0,0,.67.41l5.06,2.08v.16L8.45,55.33a2,2,0,0,0-.48.24.84.84,0,0,0-.22.27,1.43,1.43,0,0,0-.1.43H7.49V53.84h.16a1.09,1.09,0,0,0,.15.54.32.32,0,0,0,.25.12,1.87,1.87,0,0,0,.69-.21l3.49-1.51L8.78,51.37a2.4,2.4,0,0,0-.7-.2.37.37,0,0,0-.25.12,1.09,1.09,0,0,0-.17.44.26.26,0,0,1,0,.07H7.49Z"/><path d="M12.59,48.27H11.05c.18.45.3.74.37.87a1.49,1.49,0,0,0,.41.49.79.79,0,0,0,.46.15.78.78,0,0,0,.53-.19.57.57,0,0,0,.21-.43A1.67,1.67,0,0,0,12.59,48.27Zm.28,0a4.54,4.54,0,0,1,.55.79,1.21,1.21,0,0,1,.1.5.88.88,0,0,1-.28.68,1,1,0,0,1-.74.27,1,1,0,0,1-.52-.12,1.81,1.81,0,0,1-.56-.62,10,10,0,0,1-.63-1.5h-.17a1.36,1.36,0,0,0-.82.2.7.7,0,0,0-.23.55.62.62,0,0,0,.15.44.45.45,0,0,0,.35.17h.25a.42.42,0,0,1,.31.11.35.35,0,0,1,.11.26.37.37,0,0,1-.11.27.43.43,0,0,1-.31.1.89.89,0,0,1-.7-.39,1.69,1.69,0,0,1-.31-1.08A1.91,1.91,0,0,1,9.49,48a.87.87,0,0,1,.42-.38,2.55,2.55,0,0,1,.78-.08h2.07a.27.27,0,0,0,.17-.08.15.15,0,0,0,0-.11.51.51,0,0,0,0-.13,3.32,3.32,0,0,0-.33-.36h.25a1.3,1.3,0,0,1,.65,1,.44.44,0,0,1-.14.34A.73.73,0,0,1,12.87,48.27Z"/><path d="M7.2,45.18h5.34a1.44,1.44,0,0,0,.51-.06.29.29,0,0,0,.17-.17.81.81,0,0,0,.07-.42h.16v2h-.16a.85.85,0,0,0-.06-.38.35.35,0,0,0-.18-.15,1.48,1.48,0,0,0-.51-.06H8.89a6.67,6.67,0,0,0-.84,0,.41.41,0,0,0-.22.1.31.31,0,0,0,0,.17,1.49,1.49,0,0,0,.06.29l-.15.07L7.2,45.38Z"/><path d="M9.43,40.53h2.44a6.76,6.76,0,0,0,.85,0,.35.35,0,0,0,.22-.11.25.25,0,0,0,.06-.17.83.83,0,0,0-.08-.31l.15-.06.5,1.21v.19h-.85a3.39,3.39,0,0,1,.7.8,1.27,1.27,0,0,1,.15.57,1,1,0,0,1-.19.6,1.07,1.07,0,0,1-.51.34,3.15,3.15,0,0,1-.87.09H10.21a1,1,0,0,0-.4.06.52.52,0,0,0-.17.19,1.34,1.34,0,0,0-.05.43H9.43V42.92h2.69a1,1,0,0,0,.74-.19.68.68,0,0,0,.18-.48,1,1,0,0,0-.12-.42,2.72,2.72,0,0,0-.46-.58H10.18a.66.66,0,0,0-.46.13.86.86,0,0,0-.13.52H9.43Z"/><path d="M10.69,38.89V37a2.27,2.27,0,0,0-.55.09.87.87,0,0,0-.38.33.83.83,0,0,0-.14.46.9.9,0,0,0,.28.64A1.24,1.24,0,0,0,10.69,38.89Zm.25,0a2.11,2.11,0,0,0,1.41-.44,1.33,1.33,0,0,0,.51-1,1.12,1.12,0,0,0-.22-.67,1.58,1.58,0,0,0-.75-.5L12,36.1a2.15,2.15,0,0,1,1.1.54,1.44,1.44,0,0,1,.49,1.11A1.59,1.59,0,0,1,13,39a2.14,2.14,0,0,1-1.52.52A2.25,2.25,0,0,1,9.88,39a1.75,1.75,0,0,1-.58-1.34,1.45,1.45,0,0,1,.45-1.1,1.63,1.63,0,0,1,1.19-.44Z"/><g class="cls-4"><rect class="cls-5" x="47.19" y="87.55" width="8.2" height="5.28"/><rect class="cls-6" x="47.19" y="87.55" width="8.2" height="5.28"/></g><g class="cls-4"><line class="cls-7" x1="51.28" y1="92.83" x2="51.28" y2="95.6"/></g><g class="cls-4"><line class="cls-7" x1="51.28" y1="87.55" x2="51.28" y2="81.8"/></g><g class="cls-4"><line class="cls-7" x1="49.23" y1="95.6" x2="53.33" y2="95.6"/></g><g class="cls-4"><line class="cls-7" x1="49.23" y1="81.8" x2="53.33" y2="81.8"/></g><g class="cls-4"><g class="cls-8"><path class="cls-9" d="M51.28,71.85A1.69,1.69,0,0,0,52.48,69a1.69,1.69,0,0,0-2.39,2.39A1.72,1.72,0,0,0,51.28,71.85Z"/><path class="cls-10" d="M51.28,71.85A1.69,1.69,0,0,0,52.48,69a1.69,1.69,0,0,0-2.39,2.39A1.72,1.72,0,0,0,51.28,71.85Z"/></g><g class="cls-8"><path class="cls-9" d="M51.28,71.85A1.69,1.69,0,0,0,52.48,69a1.69,1.69,0,0,0-2.39,2.39A1.72,1.72,0,0,0,51.28,71.85Z"/><path class="cls-10" d="M51.28,71.85A1.69,1.69,0,0,0,52.48,69a1.69,1.69,0,0,0-2.39,2.39A1.72,1.72,0,0,0,51.28,71.85Z"/></g><g class="cls-8"><path class="cls-9" d="M51.28,71.85A1.69,1.69,0,0,0,52.48,69a1.69,1.69,0,0,0-2.39,2.39A1.72,1.72,0,0,0,51.28,71.85Z"/><path class="cls-10" d="M51.28,71.85A1.69,1.69,0,0,0,52.48,69a1.69,1.69,0,0,0-2.39,2.39A1.72,1.72,0,0,0,51.28,71.85Z"/></g><g class="cls-8"><path class="cls-9" d="M51.28,71.85A1.69,1.69,0,0,0,52.48,69a1.69,1.69,0,0,0-2.39,2.39A1.72,1.72,0,0,0,51.28,71.85Z"/><path class="cls-10" d="M51.28,71.85A1.69,1.69,0,0,0,52.48,69a1.69,1.69,0,0,0-2.39,2.39A1.72,1.72,0,0,0,51.28,71.85Z"/></g><g class="cls-8"><path class="cls-9" d="M51.28,71.85A1.69,1.69,0,0,0,52.48,69a1.69,1.69,0,0,0-2.39,2.39A1.72,1.72,0,0,0,51.28,71.85Z"/><path class="cls-10" d="M51.28,71.85A1.69,1.69,0,0,0,52.48,69a1.69,1.69,0,0,0-2.39,2.39A1.72,1.72,0,0,0,51.28,71.85Z"/></g><g class="cls-8"><path class="cls-9" d="M51.28,71.85A1.69,1.69,0,0,0,52.48,69a1.69,1.69,0,0,0-2.39,2.39A1.72,1.72,0,0,0,51.28,71.85Z"/><path class="cls-10" d="M51.28,71.85A1.69,1.69,0,0,0,52.48,69a1.69,1.69,0,0,0-2.39,2.39A1.72,1.72,0,0,0,51.28,71.85Z"/></g><g class="cls-8"><path class="cls-9" d="M51.28,71.85A1.69,1.69,0,0,0,52.48,69a1.69,1.69,0,0,0-2.39,2.39A1.72,1.72,0,0,0,51.28,71.85Z"/><path class="cls-10" d="M51.28,71.85A1.69,1.69,0,0,0,52.48,69a1.69,1.69,0,0,0-2.39,2.39A1.72,1.72,0,0,0,51.28,71.85Z"/></g><g class="cls-11"><path class="cls-9" d="M51.28,60.18a1.69,1.69,0,0,0,1.2-.49,1.69,1.69,0,0,0-2.39-2.39,1.69,1.69,0,0,0,1.19,2.88Z"/><path class="cls-10" d="M51.28,60.18a1.69,1.69,0,0,0,1.2-.49,1.69,1.69,0,0,0-2.39-2.39,1.69,1.69,0,0,0,1.19,2.88Z"/></g><g class="cls-11"><path class="cls-9" d="M51.28,60.18a1.69,1.69,0,0,0,1.2-.49,1.69,1.69,0,0,0-2.39-2.39,1.69,1.69,0,0,0,1.19,2.88Z"/><path class="cls-10" d="M51.28,60.18a1.69,1.69,0,0,0,1.2-.49,1.69,1.69,0,0,0-2.39-2.39,1.69,1.69,0,0,0,1.19,2.88Z"/></g><g class="cls-11"><path class="cls-9" d="M51.28,60.18a1.69,1.69,0,0,0,1.2-.49,1.69,1.69,0,0,0-2.39-2.39,1.69,1.69,0,0,0,1.19,2.88Z"/><path class="cls-10" d="M51.28,60.18a1.69,1.69,0,0,0,1.2-.49,1.69,1.69,0,0,0-2.39-2.39,1.69,1.69,0,0,0,1.19,2.88Z"/></g><g class="cls-11"><path class="cls-9" d="M51.28,60.18a1.69,1.69,0,0,0,1.2-.49,1.69,1.69,0,0,0-2.39-2.39,1.69,1.69,0,0,0,1.19,2.88Z"/><path class="cls-10" d="M51.28,60.18a1.69,1.69,0,0,0,1.2-.49,1.69,1.69,0,0,0-2.39-2.39,1.69,1.69,0,0,0,1.19,2.88Z"/></g><g class="cls-11"><path class="cls-9" d="M51.28,60.18a1.69,1.69,0,0,0,1.2-.49,1.69,1.69,0,0,0-2.39-2.39,1.69,1.69,0,0,0,1.19,2.88Z"/><path class="cls-10" d="M51.28,60.18a1.69,1.69,0,0,0,1.2-.49,1.69,1.69,0,0,0-2.39-2.39,1.69,1.69,0,0,0,1.19,2.88Z"/></g><g class="cls-11"><path class="cls-9" d="M51.28,60.18a1.69,1.69,0,0,0,1.2-.49,1.69,1.69,0,0,0-2.39-2.39,1.69,1.69,0,0,0,1.19,2.88Z"/><path class="cls-10" d="M51.28,60.18a1.69,1.69,0,0,0,1.2-.49,1.69,1.69,0,0,0-2.39-2.39,1.69,1.69,0,0,0,1.19,2.88Z"/></g><g class="cls-11"><path class="cls-9" d="M51.28,60.18a1.69,1.69,0,0,0,1.2-.49,1.69,1.69,0,0,0-2.39-2.39,1.69,1.69,0,0,0,1.19,2.88Z"/><path class="cls-10" d="M51.28,60.18a1.69,1.69,0,0,0,1.2-.49,1.69,1.69,0,0,0-2.39-2.39,1.69,1.69,0,0,0,1.19,2.88Z"/></g></g><g class="cls-4"><rect class="cls-12" x="74.51" y="64.68" width="8.2" height="25"/><rect class="cls-6" x="74.51" y="64.68" width="8.2" height="25"/></g><g class="cls-4"><line class="cls-7" x1="78.61" y1="89.68" x2="78.61" y2="95.7"/></g><g class="cls-4"><line class="cls-7" x1="78.61" y1="64.68" x2="78.61" y2="40.79"/></g><g class="cls-4"><line class="cls-7" x1="76.56" y1="95.7" x2="80.66" y2="95.7"/></g><g class="cls-4"><line class="cls-7" x1="76.56" y1="40.79" x2="80.66" y2="40.79"/></g><g class="cls-4"><g class="cls-13"><path class="cls-9" d="M78.61,24.77a1.69,1.69,0,0,0,1.19-.5,1.69,1.69,0,0,0,0-2.38,1.69,1.69,0,1,0-1.19,2.88Z"/><path class="cls-10" d="M78.61,24.77a1.69,1.69,0,0,0,1.19-.5,1.69,1.69,0,0,0,0-2.38,1.69,1.69,0,1,0-1.19,2.88Z"/></g><g class="cls-13"><path class="cls-9" d="M78.61,24.77a1.69,1.69,0,0,0,1.19-.5,1.69,1.69,0,0,0,0-2.38,1.69,1.69,0,1,0-1.19,2.88Z"/><path class="cls-10" d="M78.61,24.77a1.69,1.69,0,0,0,1.19-.5,1.69,1.69,0,0,0,0-2.38,1.69,1.69,0,1,0-1.19,2.88Z"/></g><g class="cls-13"><path class="cls-9" d="M78.61,24.77a1.69,1.69,0,0,0,1.19-.5,1.69,1.69,0,0,0,0-2.38,1.69,1.69,0,1,0-1.19,2.88Z"/><path class="cls-10" d="M78.61,24.77a1.69,1.69,0,0,0,1.19-.5,1.69,1.69,0,0,0,0-2.38,1.69,1.69,0,1,0-1.19,2.88Z"/></g><g class="cls-13"><path class="cls-9" d="M78.61,24.77a1.69,1.69,0,0,0,1.19-.5,1.69,1.69,0,0,0,0-2.38,1.69,1.69,0,1,0-1.19,2.88Z"/><path class="cls-10" d="M78.61,24.77a1.69,1.69,0,0,0,1.19-.5,1.69,1.69,0,0,0,0-2.38,1.69,1.69,0,1,0-1.19,2.88Z"/></g><g class="cls-13"><path class="cls-9" d="M78.61,24.77a1.69,1.69,0,0,0,1.19-.5,1.69,1.69,0,0,0,0-2.38,1.69,1.69,0,1,0-1.19,2.88Z"/><path class="cls-10" d="M78.61,24.77a1.69,1.69,0,0,0,1.19-.5,1.69,1.69,0,0,0,0-2.38,1.69,1.69,0,1,0-1.19,2.88Z"/></g><g class="cls-13"><path class="cls-9" d="M78.61,24.77a1.69,1.69,0,0,0,1.19-.5,1.69,1.69,0,0,0,0-2.38,1.69,1.69,0,1,0-1.19,2.88Z"/><path class="cls-10" d="M78.61,24.77a1.69,1.69,0,0,0,1.19-.5,1.69,1.69,0,0,0,0-2.38,1.69,1.69,0,1,0-1.19,2.88Z"/></g><g class="cls-13"><path class="cls-9" d="M78.61,24.77a1.69,1.69,0,0,0,1.19-.5,1.69,1.69,0,0,0,0-2.38,1.69,1.69,0,1,0-1.19,2.88Z"/><path class="cls-10" d="M78.61,24.77a1.69,1.69,0,0,0,1.19-.5,1.69,1.69,0,0,0,0-2.38,1.69,1.69,0,1,0-1.19,2.88Z"/></g></g><g class="cls-4"><rect class="cls-14" x="101.83" y="86.57" width="8.2" height="5.63"/><rect class="cls-6" x="101.83" y="86.57" width="8.2" height="5.63"/></g><g class="cls-4"><line class="cls-7" x1="105.93" y1="92.2" x2="105.93" y2="95.12"/></g><g class="cls-4"><line class="cls-7" x1="105.93" y1="86.57" x2="105.93" y2="80.68"/></g><g class="cls-4"><line class="cls-7" x1="103.88" y1="95.12" x2="107.98" y2="95.12"/></g><g class="cls-4"><line class="cls-7" x1="103.88" y1="80.68" x2="107.98" y2="80.68"/></g><g class="cls-4"><g class="cls-15"><path class="cls-9" d="M105.93,79.23a1.68,1.68,0,0,0,1.19-2.88,1.69,1.69,0,0,0-2.38,0,1.69,1.69,0,0,0,1.19,2.88Z"/><path class="cls-10" d="M105.93,79.23a1.68,1.68,0,0,0,1.19-2.88,1.69,1.69,0,0,0-2.38,0,1.69,1.69,0,0,0,1.19,2.88Z"/></g><g class="cls-15"><path class="cls-9" d="M105.93,79.23a1.68,1.68,0,0,0,1.19-2.88,1.69,1.69,0,0,0-2.38,0,1.69,1.69,0,0,0,1.19,2.88Z"/><path class="cls-10" d="M105.93,79.23a1.68,1.68,0,0,0,1.19-2.88,1.69,1.69,0,0,0-2.38,0,1.69,1.69,0,0,0,1.19,2.88Z"/></g><g class="cls-15"><path class="cls-9" d="M105.93,79.23a1.68,1.68,0,0,0,1.19-2.88,1.69,1.69,0,0,0-2.38,0,1.69,1.69,0,0,0,1.19,2.88Z"/><path class="cls-10" d="M105.93,79.23a1.68,1.68,0,0,0,1.19-2.88,1.69,1.69,0,0,0-2.38,0,1.69,1.69,0,0,0,1.19,2.88Z"/></g><g class="cls-15"><path class="cls-9" d="M105.93,79.23a1.68,1.68,0,0,0,1.19-2.88,1.69,1.69,0,0,0-2.38,0,1.69,1.69,0,0,0,1.19,2.88Z"/><path class="cls-10" d="M105.93,79.23a1.68,1.68,0,0,0,1.19-2.88,1.69,1.69,0,0,0-2.38,0,1.69,1.69,0,0,0,1.19,2.88Z"/></g><g class="cls-15"><path class="cls-9" d="M105.93,79.23a1.68,1.68,0,0,0,1.19-2.88,1.69,1.69,0,0,0-2.38,0,1.69,1.69,0,0,0,1.19,2.88Z"/><path class="cls-10" d="M105.93,79.23a1.68,1.68,0,0,0,1.19-2.88,1.69,1.69,0,0,0-2.38,0,1.69,1.69,0,0,0,1.19,2.88Z"/></g><g class="cls-15"><path class="cls-9" d="M105.93,79.23a1.68,1.68,0,0,0,1.19-2.88,1.69,1.69,0,0,0-2.38,0,1.69,1.69,0,0,0,1.19,2.88Z"/><path class="cls-10" d="M105.93,79.23a1.68,1.68,0,0,0,1.19-2.88,1.69,1.69,0,0,0-2.38,0,1.69,1.69,0,0,0,1.19,2.88Z"/></g><g class="cls-15"><path class="cls-9" d="M105.93,79.23a1.68,1.68,0,0,0,1.19-2.88,1.69,1.69,0,0,0-2.38,0,1.69,1.69,0,0,0,1.19,2.88Z"/><path class="cls-10" d="M105.93,79.23a1.68,1.68,0,0,0,1.19-2.88,1.69,1.69,0,0,0-2.38,0,1.69,1.69,0,0,0,1.19,2.88Z"/></g></g><g class="cls-4"><line class="cls-16" x1="47.19" y1="89.83" x2="55.38" y2="89.83"/></g><g class="cls-4"><line class="cls-16" x1="74.51" y1="76.62" x2="82.71" y2="76.62"/></g><g class="cls-4"><line class="cls-16" x1="101.83" y1="91.46" x2="110.03" y2="91.46"/></g><line class="cls-17" x1="37.62" y1="99.33" x2="37.62" y2="19.45"/><line class="cls-17" x1="119.59" y1="99.33" x2="119.59" y2="19.45"/><line class="cls-17" x1="37.62" y1="99.33" x2="119.59" y2="99.33"/><line class="cls-17" x1="37.62" y1="19.45" x2="119.59" y2="19.45"/><path d="M45.09,10.39h.24A1.93,1.93,0,0,0,46.62,10a1.2,1.2,0,0,0,.43-.94,1.24,1.24,0,0,0-.35-.9,1.26,1.26,0,0,0-.93-.36,3.43,3.43,0,0,0-.68.09Zm4.23,3.06h-1.6l-2-2.79h-.62V12.4a1.24,1.24,0,0,0,.11.69.63.63,0,0,0,.51.2h.23v.16H43.38v-.16h.23a.59.59,0,0,0,.54-.25,1.54,1.54,0,0,0,.09-.64V8.54a1.41,1.41,0,0,0-.12-.7.68.68,0,0,0-.51-.19h-.23V7.49h2.17A5.31,5.31,0,0,1,47,7.64a1.66,1.66,0,0,1,.76.5A1.32,1.32,0,0,1,48,9a1.45,1.45,0,0,1-.36,1,2.06,2.06,0,0,1-1.11.57l1.22,1.71a2.79,2.79,0,0,0,.73.78,1.89,1.89,0,0,0,.8.25Z"/><path d="M52.92,13.45l-2.31-5v4a1.11,1.11,0,0,0,.13.69.66.66,0,0,0,.51.19h.21v.16H49.39v-.16h.2a.58.58,0,0,0,.54-.23,1.41,1.41,0,0,0,.09-.65V8.53A1.46,1.46,0,0,0,50.14,8a.53.53,0,0,0-.23-.21,1.31,1.31,0,0,0-.52-.09V7.49h1.68l2.16,4.66,2.13-4.66h1.69v.16h-.21a.65.65,0,0,0-.54.23,1.3,1.3,0,0,0-.1.65v3.88a1.11,1.11,0,0,0,.13.69.65.65,0,0,0,.51.19h.21v.16H54.52v-.16h.2a.58.58,0,0,0,.54-.23,1.25,1.25,0,0,0,.1-.65v-4l-2.3,5Z"/><path d="M61.36,7.36V9.42H61.2a2.9,2.9,0,0,0-.28-.95,1.76,1.76,0,0,0-.59-.56,1.68,1.68,0,0,0-.78-.2,1.09,1.09,0,0,0-.76.28.86.86,0,0,0-.29.63.71.71,0,0,0,.19.5A4.69,4.69,0,0,0,60,10a8.26,8.26,0,0,1,1.14.7,1.78,1.78,0,0,1,.47.56,1.48,1.48,0,0,1,.16.68,1.55,1.55,0,0,1-.52,1.16,1.93,1.93,0,0,1-1.35.49,3.32,3.32,0,0,1-.48,0l-.57-.15a3,3,0,0,0-.55-.14.29.29,0,0,0-.17.06.5.5,0,0,0-.09.27h-.16v-2H58a2.69,2.69,0,0,0,.31,1,1.42,1.42,0,0,0,.59.54,1.8,1.8,0,0,0,.87.2,1.24,1.24,0,0,0,.87-.29.87.87,0,0,0,.32-.68.89.89,0,0,0-.13-.45,1.28,1.28,0,0,0-.37-.41c-.12-.09-.44-.27-.94-.56a8.66,8.66,0,0,1-1.09-.69A1.67,1.67,0,0,1,58,9.6a1.4,1.4,0,0,1-.17-.68,1.5,1.5,0,0,1,.49-1.1,1.78,1.78,0,0,1,1.25-.46,2.62,2.62,0,0,1,1,.23,1.08,1.08,0,0,0,.35.11.28.28,0,0,0,.18-.06.57.57,0,0,0,.12-.28Z"/><path d="M64.12,7.82v2.35h1.31a1,1,0,0,0,.68-.15,1,1,0,0,0,.25-.71h.17v2.07h-.17a2.64,2.64,0,0,0-.11-.56.64.64,0,0,0-.27-.24,1.27,1.27,0,0,0-.55-.09H64.12v2a1.55,1.55,0,0,0,0,.49.33.33,0,0,0,.11.13.73.73,0,0,0,.35.05h1a2.18,2.18,0,0,0,.73-.08.89.89,0,0,0,.44-.28,3.4,3.4,0,0,0,.56-.81h.18L67,13.45H62.43v-.16h.21a.78.78,0,0,0,.39-.1.39.39,0,0,0,.19-.21,1.77,1.77,0,0,0,.06-.58V8.53a1.41,1.41,0,0,0-.11-.71.78.78,0,0,0-.53-.17h-.21V7.49H67l.06,1.31h-.17a1.8,1.8,0,0,0-.21-.64.71.71,0,0,0-.33-.28,2.14,2.14,0,0,0-.61-.06Z"/><path d="M75.41,7.36l.13,2h-.13a2.47,2.47,0,0,0-.79-1.3,1.86,1.86,0,0,0-1.2-.41A2,2,0,0,0,72.34,8a1.94,1.94,0,0,0-.76.95,4.36,4.36,0,0,0-.27,1.64,3.33,3.33,0,0,0,.26,1.4,1.81,1.81,0,0,0,.79.91,2.11,2.11,0,0,0,1.18.32,2,2,0,0,0,1-.25,3.25,3.25,0,0,0,1-1l.14.1a3.15,3.15,0,0,1-1.05,1.16,2.77,2.77,0,0,1-1.42.36,2.67,2.67,0,0,1-2.29-1.09,3.11,3.11,0,0,1-.61-1.93,3.43,3.43,0,0,1,.4-1.64,2.93,2.93,0,0,1,1.11-1.15,3,3,0,0,1,1.53-.41,2.8,2.8,0,0,1,1.27.31.61.61,0,0,0,.26.1.29.29,0,0,0,.21-.09.64.64,0,0,0,.16-.32Z"/><path d="M78.11,9.59a.92.92,0,0,0-.47.14.93.93,0,0,0-.38.49,2.28,2.28,0,0,0-.14.89,3.12,3.12,0,0,0,.34,1.51,1,1,0,0,0,.93.64.88.88,0,0,0,.7-.35,2,2,0,0,0,.28-1.21A2.78,2.78,0,0,0,78.9,10,1,1,0,0,0,78.11,9.59Zm.13-.28a1.79,1.79,0,0,1,1.47.69,2.18,2.18,0,0,1,.47,1.36,2.64,2.64,0,0,1-.26,1.1,1.83,1.83,0,0,1-.71.83,2,2,0,0,1-1,.28,1.72,1.72,0,0,1-1.45-.72,2.21,2.21,0,0,1-.45-1.37,2.45,2.45,0,0,1,.27-1.1,1.91,1.91,0,0,1,.72-.81A1.89,1.89,0,0,1,78.24,9.31Z"/><path d="M82,10.16l.52-.5a1.54,1.54,0,0,1,.42-.26,1.44,1.44,0,0,1,.45-.09,1,1,0,0,1,.65.22,1.08,1.08,0,0,1,.37.63,2.8,2.8,0,0,1,.77-.69,1.31,1.31,0,0,1,.63-.16,1,1,0,0,1,.57.16,1.16,1.16,0,0,1,.4.54,2.55,2.55,0,0,1,.1.8v1.73a1.58,1.58,0,0,0,.05.52.31.31,0,0,0,.16.16.77.77,0,0,0,.39.07v.16h-2v-.16h.08a.71.71,0,0,0,.41-.1A.5.5,0,0,0,86.1,13a2.75,2.75,0,0,0,0-.42V10.81a1.66,1.66,0,0,0-.12-.7.62.62,0,0,0-.55-.28A1.17,1.17,0,0,0,85,10a2.26,2.26,0,0,0-.56.43v2.16a1.68,1.68,0,0,0,0,.51.29.29,0,0,0,.17.17.9.9,0,0,0,.43.07v.16H83v-.16a1,1,0,0,0,.46-.07.52.52,0,0,0,.18-.25,2.82,2.82,0,0,0,0-.43V10.81a1.42,1.42,0,0,0-.15-.71A.64.64,0,0,0,83,9.82a.94.94,0,0,0-.46.13,1.47,1.47,0,0,0-.57.43v2.16a1.64,1.64,0,0,0,0,.51.36.36,0,0,0,.16.18,1.1,1.1,0,0,0,.45.06v.16h-2v-.16a.8.8,0,0,0,.37-.06.34.34,0,0,0,.18-.19,1.75,1.75,0,0,0,0-.5V11a6.36,6.36,0,0,0,0-.85.3.3,0,0,0-.1-.2.24.24,0,0,0-.18-.06.64.64,0,0,0-.28.07l-.08-.16,1.22-.49H82Z"/><path d="M88.89,10.52V12a2.94,2.94,0,0,0,0,.64.82.82,0,0,0,.3.45,1,1,0,0,0,.6.19.86.86,0,0,0,.72-.35,2,2,0,0,0,.36-1.26,2.22,2.22,0,0,0-.41-1.42.87.87,0,0,0-.67-.34.94.94,0,0,0-.42.11A2.25,2.25,0,0,0,88.89,10.52Zm-1.4-.7,1.24-.49h.16v.93a2.14,2.14,0,0,1,.63-.73,1.09,1.09,0,0,1,.66-.22,1.29,1.29,0,0,1,1,.47,2.27,2.27,0,0,1,.5,1.51,2.56,2.56,0,0,1-.6,1.73,1.66,1.66,0,0,1-1.8.45,1.13,1.13,0,0,1-.4-.25v1.21a1.72,1.72,0,0,0,0,.52.42.42,0,0,0,.17.18,1,1,0,0,0,.46.07v.17H87.48V15.2h.1a.88.88,0,0,0,.41-.09.43.43,0,0,0,.13-.16,2.58,2.58,0,0,0,0-.55V10.61a2.1,2.1,0,0,0,0-.49A.27.27,0,0,0,88,10a.34.34,0,0,0-.2-.06.89.89,0,0,0-.27.07Z"/><path d="M94.56,12.59V11.05c-.45.18-.74.3-.87.37a1.49,1.49,0,0,0-.49.41.78.78,0,0,0-.14.46.75.75,0,0,0,.19.53.56.56,0,0,0,.43.21A1.68,1.68,0,0,0,94.56,12.59Zm0,.28a4.65,4.65,0,0,1-.78.55,1.29,1.29,0,0,1-.51.1.88.88,0,0,1-.68-.28,1,1,0,0,1-.27-.74,1,1,0,0,1,.12-.52,1.77,1.77,0,0,1,.63-.56,9.8,9.8,0,0,1,1.49-.63v-.17a1.29,1.29,0,0,0-.2-.82.67.67,0,0,0-.55-.23.62.62,0,0,0-.44.15.45.45,0,0,0-.17.35v.25a.42.42,0,0,1-.11.31.35.35,0,0,1-.26.11.37.37,0,0,1-.27-.11.43.43,0,0,1-.1-.31.92.92,0,0,1,.39-.7,1.69,1.69,0,0,1,1.08-.31,1.89,1.89,0,0,1,.88.18.82.82,0,0,1,.38.42,2.55,2.55,0,0,1,.08.78v1.37a5.14,5.14,0,0,0,0,.7c0,.09,0,.14.07.17a.17.17,0,0,0,.12,0l.12,0a2.56,2.56,0,0,0,.36-.33v.25c-.33.44-.65.65-.94.65a.43.43,0,0,1-.34-.14A.73.73,0,0,1,94.56,12.87Z"/><path d="M97.45,9.31v.9c.33-.59.67-.9,1-.9a.59.59,0,0,1,.4.14A.46.46,0,0,1,99,9.8a.36.36,0,0,1-.12.28.34.34,0,0,1-.27.12.53.53,0,0,1-.34-.15A.59.59,0,0,0,98,9.89a.28.28,0,0,0-.17.1,2.2,2.2,0,0,0-.41.59v1.93a1.29,1.29,0,0,0,.08.51.51.51,0,0,0,.21.2.89.89,0,0,0,.41.07v.16H96.09v-.16a1,1,0,0,0,.46-.09A.39.39,0,0,0,96.7,13a1.73,1.73,0,0,0,0-.43V11a5.43,5.43,0,0,0,0-.83.3.3,0,0,0-.11-.2.28.28,0,0,0-.18-.06.76.76,0,0,0-.31.07l0-.16,1.23-.49Z"/><path d="M100.66,9.31v3.23a1.7,1.7,0,0,0,0,.5.32.32,0,0,0,.17.19.82.82,0,0,0,.38.06v.16h-2v-.16a.92.92,0,0,0,.4-.06.38.38,0,0,0,.15-.19,1.37,1.37,0,0,0,.06-.5V11c0-.43,0-.72,0-.85a.38.38,0,0,0-.1-.19.28.28,0,0,0-.18-.06.79.79,0,0,0-.3.07l-.06-.16,1.21-.49Zm-.37-2.11a.46.46,0,0,1,.32.13.45.45,0,0,1,.12.31.45.45,0,0,1-.12.32.42.42,0,0,1-.32.13A.42.42,0,0,1,100,8a.43.43,0,0,1-.14-.32.42.42,0,0,1,.13-.31A.48.48,0,0,1,100.29,7.2Z"/><path d="M104.37,9.31v1.37h-.15a1.75,1.75,0,0,0-.42-.88.94.94,0,0,0-.66-.24.8.8,0,0,0-.51.16.52.52,0,0,0-.19.36.63.63,0,0,0,.15.43,1.46,1.46,0,0,0,.55.38l.64.31c.6.3.89.68.89,1.15a1.06,1.06,0,0,1-.41.88,1.46,1.46,0,0,1-.93.34,3.45,3.45,0,0,1-.84-.13.85.85,0,0,0-.25,0,.16.16,0,0,0-.15.1H102V12.07h.14a1.65,1.65,0,0,0,.47.94,1.11,1.11,0,0,0,.78.3.65.65,0,0,0,.49-.18.58.58,0,0,0,.2-.43.68.68,0,0,0-.22-.5,3.68,3.68,0,0,0-.85-.52,2.17,2.17,0,0,1-.83-.58.93.93,0,0,1-.2-.63,1.13,1.13,0,0,1,.34-.83,1.26,1.26,0,0,1,.88-.33,2.43,2.43,0,0,1,.58.1,1.27,1.27,0,0,0,.3.06.15.15,0,0,0,.1,0,.31.31,0,0,0,.09-.13Z"/><path d="M107.11,9.59a.89.89,0,0,0-.47.14.93.93,0,0,0-.38.49,2.28,2.28,0,0,0-.14.89,3,3,0,0,0,.34,1.51,1,1,0,0,0,.92.64.89.89,0,0,0,.71-.35,2,2,0,0,0,.28-1.21A2.85,2.85,0,0,0,107.9,10,1,1,0,0,0,107.11,9.59Zm.13-.28a1.79,1.79,0,0,1,1.47.69,2.24,2.24,0,0,1,.47,1.36,2.51,2.51,0,0,1-.27,1.1,1.77,1.77,0,0,1-.71.83,1.93,1.93,0,0,1-1,.28,1.7,1.7,0,0,1-1.45-.72,2.21,2.21,0,0,1-.45-1.37,2.45,2.45,0,0,1,.27-1.1,1.91,1.91,0,0,1,.72-.81A1.86,1.86,0,0,1,107.24,9.31Z"/><path d="M111,10.16a1.92,1.92,0,0,1,1.35-.85,1,1,0,0,1,.56.16,1.14,1.14,0,0,1,.38.54,2.73,2.73,0,0,1,.09.81v1.72a1.25,1.25,0,0,0,.07.52.28.28,0,0,0,.15.17.92.92,0,0,0,.4.06v.16h-2v-.16h.09a.69.69,0,0,0,.38-.08.54.54,0,0,0,.17-.26s0-.18,0-.41V10.89a1.71,1.71,0,0,0-.14-.79.54.54,0,0,0-.49-.25,1.42,1.42,0,0,0-1,.57v2.12a1.64,1.64,0,0,0,0,.5.36.36,0,0,0,.17.19,1.08,1.08,0,0,0,.44.06v.16h-2v-.16h.09a.45.45,0,0,0,.41-.16,1.08,1.08,0,0,0,.11-.59V11.05a6.42,6.42,0,0,0,0-.89.3.3,0,0,0-.1-.21.24.24,0,0,0-.18-.06.68.68,0,0,0-.29.07l-.07-.16,1.22-.49H111Z"/><rect class="cls-2" x="160.2" y="19.45" width="81.97" height="79.88"/><line class="cls-3" x1="173.86" y1="99.33" x2="173.86" y2="102.83"/><path d="M169.78,106.49l.14,2h-.14a2.53,2.53,0,0,0-.78-1.3,1.88,1.88,0,0,0-1.21-.41,2.05,2.05,0,0,0-1.08.31,2,2,0,0,0-.75,1,4.36,4.36,0,0,0-.27,1.64,3.33,3.33,0,0,0,.26,1.4,1.84,1.84,0,0,0,.78.91,2.14,2.14,0,0,0,1.19.32,2,2,0,0,0,1-.25,3.37,3.37,0,0,0,1-1l.13.09a3.17,3.17,0,0,1-1,1.17,2.82,2.82,0,0,1-1.42.36,2.67,2.67,0,0,1-2.29-1.09,3.11,3.11,0,0,1-.61-1.93,3.42,3.42,0,0,1,.39-1.64,2.93,2.93,0,0,1,1.11-1.15,3,3,0,0,1,1.53-.41,2.84,2.84,0,0,1,1.28.31.61.61,0,0,0,.26.1.32.32,0,0,0,.21-.09.74.74,0,0,0,.16-.32Z"/><path d="M170.26,106.62h1.61l3.64,4.47v-3.43a1.41,1.41,0,0,0-.12-.7.72.72,0,0,0-.52-.18h-.2v-.16h2.07v.16h-.21a.63.63,0,0,0-.54.23,1.3,1.3,0,0,0-.1.65v5h-.15l-3.93-4.79v3.66a1.24,1.24,0,0,0,.11.69.67.67,0,0,0,.52.19h.21v.16h-2.08v-.16h.21a.6.6,0,0,0,.54-.23,1.36,1.36,0,0,0,.1-.65V107.4a3.3,3.3,0,0,0-.4-.39,1.66,1.66,0,0,0-.38-.19,1.76,1.76,0,0,0-.38,0Z"/><path d="M176.76,106.62h1.61l3.63,4.47v-3.43a1.45,1.45,0,0,0-.11-.7.73.73,0,0,0-.53-.18h-.19v-.16h2.07v.16H183a.63.63,0,0,0-.54.23,1.3,1.3,0,0,0-.1.65v5h-.15l-3.94-4.79v3.66a1.22,1.22,0,0,0,.12.69.66.66,0,0,0,.51.19h.22v.16h-2.08v-.16h.21a.6.6,0,0,0,.54-.23,1.36,1.36,0,0,0,.1-.65V107.4a3.3,3.3,0,0,0-.4-.39,1.57,1.57,0,0,0-.39-.19,1.66,1.66,0,0,0-.37,0Z"/><line class="cls-3" x1="201.19" y1="99.33" x2="201.19" y2="102.83"/><path d="M191.18,110.26l-1-2.41-1,2.41Zm.13.32H189l-.41,1a1.4,1.4,0,0,0-.14.51.29.29,0,0,0,.12.25,1.09,1.09,0,0,0,.56.13v.16h-1.87v-.16a1,1,0,0,0,.48-.17,3,3,0,0,0,.5-.86l2.1-4.9h.15l2.07,5a2.16,2.16,0,0,0,.45.77.93.93,0,0,0,.58.2v.16h-2.35v-.16a.83.83,0,0,0,.47-.12.3.3,0,0,0,.13-.25,1.85,1.85,0,0,0-.17-.6Z"/><path d="M193.58,106.62h1.61l3.63,4.47v-3.43a1.45,1.45,0,0,0-.11-.7.73.73,0,0,0-.53-.18H198v-.16h2.07v.16h-.21a.63.63,0,0,0-.54.23,1.3,1.3,0,0,0-.1.65v5h-.15l-3.94-4.79v3.66a1.22,1.22,0,0,0,.12.69.66.66,0,0,0,.51.19H196v.16h-2.08v-.16h.21a.6.6,0,0,0,.54-.23,1.36,1.36,0,0,0,.1-.65V107.4a3.3,3.3,0,0,0-.4-.39,1.57,1.57,0,0,0-.39-.19,1.66,1.66,0,0,0-.37,0Z"/><path d="M202,112.15a3.94,3.94,0,0,0,.93.12,2.21,2.21,0,0,0,1.69-.71,3.12,3.12,0,0,0,0-3.89,2.28,2.28,0,0,0-1.72-.72,3.9,3.9,0,0,0-.9.13Zm-1.7.43v-.16h.22a.59.59,0,0,0,.54-.25,1.54,1.54,0,0,0,.09-.64v-3.86a1.31,1.31,0,0,0-.12-.7.66.66,0,0,0-.51-.19h-.22v-.16h2.43a5.31,5.31,0,0,1,2,.31,2.44,2.44,0,0,1,1.13,1,3.19,3.19,0,0,1,.42,1.63,2.92,2.92,0,0,1-.76,2.07,3.29,3.29,0,0,1-2.58.94Z"/><path d="M208.53,109.54l.41.07a1.78,1.78,0,0,0,.31,0,1.09,1.09,0,0,0,.79-.35,1.34,1.34,0,0,0,.33-.92,1.61,1.61,0,0,0-.16-.72,1.1,1.1,0,0,0-.45-.5,1.47,1.47,0,0,0-.66-.17,3,3,0,0,0-.57.09Zm0,.25v1.74c0,.37,0,.6.12.69a.62.62,0,0,0,.51.2h.22v.16h-2.55v-.16h.23a.61.61,0,0,0,.54-.25,1.6,1.6,0,0,0,.08-.64v-3.86a1.41,1.41,0,0,0-.12-.7.67.67,0,0,0-.5-.19h-.23v-.16H209a3.82,3.82,0,0,1,1.26.17,1.8,1.8,0,0,1,.78.55,1.44,1.44,0,0,1,.32.93,1.56,1.56,0,0,1-.49,1.19,1.91,1.91,0,0,1-1.36.46l-.46,0C208.89,109.87,208.71,109.83,208.53,109.79Z"/><path d="M214.56,108.44v1.37h-.14a1.84,1.84,0,0,0-.42-.88,1,1,0,0,0-.67-.24.77.77,0,0,0-.5.16.48.48,0,0,0-.19.36.62.62,0,0,0,.14.43,1.44,1.44,0,0,0,.56.38l.64.31c.59.3.89.68.89,1.15a1.06,1.06,0,0,1-.41.88,1.48,1.48,0,0,1-.93.34,3.59,3.59,0,0,1-.85-.13.85.85,0,0,0-.24,0,.15.15,0,0,0-.15.1h-.15V111.2h.15a1.59,1.59,0,0,0,.47.94,1.11,1.11,0,0,0,.78.3.61.61,0,0,0,.48-.18.55.55,0,0,0,.2-.43.67.67,0,0,0-.21-.5,4.07,4.07,0,0,0-.86-.52,2.36,2.36,0,0,1-.83-.58,1,1,0,0,1-.19-.63,1.09,1.09,0,0,1,.34-.83,1.24,1.24,0,0,1,.88-.33,2.6,2.6,0,0,1,.58.1,1.32,1.32,0,0,0,.29.06.18.18,0,0,0,.11,0,.44.44,0,0,0,.09-.13Z"/><line class="cls-3" x1="228.51" y1="99.33" x2="228.51" y2="102.83"/><path d="M224,110.26l-1-2.41L222,110.26Zm.12.32h-2.31l-.41,1a1.64,1.64,0,0,0-.14.51.3.3,0,0,0,.13.25,1.08,1.08,0,0,0,.55.13v.16h-1.87v-.16a1,1,0,0,0,.49-.17,3.31,3.31,0,0,0,.49-.86l2.1-4.9h.15l2.07,5a2.51,2.51,0,0,0,.45.77,1,1,0,0,0,.58.2v.16h-2.35v-.16a.87.87,0,0,0,.48-.12.29.29,0,0,0,.12-.25,1.85,1.85,0,0,0-.17-.6Z"/><path d="M228.39,107v2.35h1.3a1,1,0,0,0,.69-.15,1,1,0,0,0,.25-.71h.17v2.07h-.17a2.45,2.45,0,0,0-.12-.56.56.56,0,0,0-.26-.24,1.29,1.29,0,0,0-.56-.09h-1.3v2a1.55,1.55,0,0,0,0,.49s.06.09.11.13a.68.68,0,0,0,.34.05h1a2.18,2.18,0,0,0,.73-.08.94.94,0,0,0,.44-.28,3.4,3.4,0,0,0,.56-.81h.18l-.51,1.49H226.7v-.16h.2a.82.82,0,0,0,.4-.1.43.43,0,0,0,.19-.21,1.87,1.87,0,0,0,0-.58v-3.87a1.45,1.45,0,0,0-.1-.71.79.79,0,0,0-.54-.17h-.2v-.16h4.59l.06,1.31h-.17a2,2,0,0,0-.21-.64.76.76,0,0,0-.33-.28A2.14,2.14,0,0,0,230,107Z"/><path d="M233.85,107v2.34h1.08a.79.79,0,0,0,.55-.17,1.15,1.15,0,0,0,.24-.65h.16v2h-.16a1.42,1.42,0,0,0-.1-.51.56.56,0,0,0-.24-.24.92.92,0,0,0-.45-.09h-1.08v1.88a1.8,1.8,0,0,0,.06.59.36.36,0,0,0,.18.19.8.8,0,0,0,.4.11h.22v.16h-2.56v-.16h.22a.61.61,0,0,0,.53-.22,1.28,1.28,0,0,0,.11-.67v-3.86a1.81,1.81,0,0,0-.07-.59.4.4,0,0,0-.18-.19.79.79,0,0,0-.39-.11h-.22v-.16h4.44l0,1.31h-.15a2,2,0,0,0-.27-.61,1,1,0,0,0-.37-.28,2,2,0,0,0-.68-.09Z"/><line class="cls-3" x1="160.2" y1="96.3" x2="156.7" y2="96.3"/><path d="M143.14,96.59a5.35,5.35,0,0,0,.31,2c.16.44.4.66.74.66a.73.73,0,0,0,.49-.21,1.36,1.36,0,0,0,.39-.72,8.89,8.89,0,0,0,.2-2.13,5.88,5.88,0,0,0-.21-1.7,1.62,1.62,0,0,0-.41-.71.67.67,0,0,0-1,.11,2.19,2.19,0,0,0-.43,1.16A11.51,11.51,0,0,0,143.14,96.59Zm-.86-.11a4.51,4.51,0,0,1,.3-1.76,2.55,2.55,0,0,1,.82-1.1,1.42,1.42,0,0,1,.82-.28,1.56,1.56,0,0,1,1.23.7,3.71,3.71,0,0,1,.68,2.35,4.59,4.59,0,0,1-.3,1.76,2.37,2.37,0,0,1-.76,1,1.62,1.62,0,0,1-.9.32,1.64,1.64,0,0,1-1.42-1A4.05,4.05,0,0,1,142.28,96.48Z"/><path d="M147.58,98.57a.48.48,0,0,1,.34.14.52.52,0,0,1,.14.35.46.46,0,0,1-.14.34.51.51,0,0,1-.34.14.48.48,0,0,1-.35-.14.46.46,0,0,1-.14-.34.52.52,0,0,1,.14-.35A.48.48,0,0,1,147.58,98.57Z"/><path d="M149.89,96.59a5.35,5.35,0,0,0,.31,2c.16.44.4.66.74.66a.73.73,0,0,0,.49-.21,1.36,1.36,0,0,0,.39-.72,8.89,8.89,0,0,0,.2-2.13,5.88,5.88,0,0,0-.21-1.7,1.62,1.62,0,0,0-.41-.71.67.67,0,0,0-1,.11,2.19,2.19,0,0,0-.43,1.16A11.51,11.51,0,0,0,149.89,96.59Zm-.86-.11a4.51,4.51,0,0,1,.3-1.76,2.55,2.55,0,0,1,.82-1.1,1.42,1.42,0,0,1,.82-.28,1.56,1.56,0,0,1,1.23.7,3.71,3.71,0,0,1,.68,2.35,4.59,4.59,0,0,1-.3,1.76,2.37,2.37,0,0,1-.76,1,1.62,1.62,0,0,1-.9.32,1.64,1.64,0,0,1-1.42-1A4.05,4.05,0,0,1,149,96.48Z"/><line class="cls-3" x1="160.2" y1="76.26" x2="156.7" y2="76.26"/><path d="M143.14,76.55a5.4,5.4,0,0,0,.31,2c.16.44.4.65.74.65a.76.76,0,0,0,.49-.2,1.4,1.4,0,0,0,.39-.72,9,9,0,0,0,.2-2.14,5.93,5.93,0,0,0-.21-1.7,1.62,1.62,0,0,0-.41-.71.68.68,0,0,0-1,.12,2.15,2.15,0,0,0-.43,1.15A11.51,11.51,0,0,0,143.14,76.55Zm-.86-.11a4.46,4.46,0,0,1,.3-1.75,2.44,2.44,0,0,1,.82-1.1,1.37,1.37,0,0,1,.82-.29,1.56,1.56,0,0,1,1.23.7,3.73,3.73,0,0,1,.68,2.35,4.59,4.59,0,0,1-.3,1.76,2.37,2.37,0,0,1-.76,1,1.62,1.62,0,0,1-.9.32,1.64,1.64,0,0,1-1.42-1A4,4,0,0,1,142.28,76.44Z"/><path d="M147.58,78.53a.48.48,0,0,1,.34.14.52.52,0,0,1,.14.35.48.48,0,0,1-.14.35.5.5,0,0,1-.34.13.48.48,0,0,1-.35-.13.48.48,0,0,1-.14-.35.52.52,0,0,1,.14-.35A.48.48,0,0,1,147.58,78.53Z"/><path d="M152.82,78.24l-.41,1.14h-3.52v-.16a15.33,15.33,0,0,0,2.19-2.31,3,3,0,0,0,.63-1.64,1.31,1.31,0,0,0-.35-.93,1.14,1.14,0,0,0-.82-.37,1.24,1.24,0,0,0-.79.27,1.45,1.45,0,0,0-.52.74h-.16a2,2,0,0,1,.56-1.24,1.57,1.57,0,0,1,1.13-.44,1.71,1.71,0,0,1,1.22.47,1.49,1.49,0,0,1,.48,1.1,2.26,2.26,0,0,1-.2.9,6,6,0,0,1-1.07,1.51c-.72.8-1.18,1.28-1.36,1.44h1.55a3.49,3.49,0,0,0,.67,0,.87.87,0,0,0,.35-.13.9.9,0,0,0,.26-.31Z"/><line class="cls-3" x1="160.2" y1="56.22" x2="156.7" y2="56.22"/><path d="M143.14,56.51a5.37,5.37,0,0,0,.31,2c.16.44.4.66.74.66a.78.78,0,0,0,.49-.21,1.4,1.4,0,0,0,.39-.72,9,9,0,0,0,.2-2.13,6,6,0,0,0-.21-1.71,1.68,1.68,0,0,0-.41-.71.68.68,0,0,0-1,.12,2.15,2.15,0,0,0-.43,1.15A11.63,11.63,0,0,0,143.14,56.51Zm-.86-.11a4.46,4.46,0,0,1,.3-1.75,2.44,2.44,0,0,1,.82-1.1,1.37,1.37,0,0,1,.82-.29,1.59,1.59,0,0,1,1.23.7,3.73,3.73,0,0,1,.68,2.35,4.64,4.64,0,0,1-.3,1.77,2.33,2.33,0,0,1-.76,1,1.56,1.56,0,0,1-.9.33,1.66,1.66,0,0,1-1.42-1A4.09,4.09,0,0,1,142.28,56.4Z"/><path d="M147.58,58.49a.5.5,0,0,1,.48.5.48.48,0,0,1-.14.34.5.5,0,0,1-.34.13.46.46,0,0,1-.49-.47.48.48,0,0,1,.14-.35A.49.49,0,0,1,147.58,58.49Z"/><path d="M151.37,57.15v-3l-2.1,3Zm1.52,0v.62h-.8v1.58h-.72V57.77h-2.52v-.56l2.76-4h.48v3.89Z"/><line class="cls-3" x1="160.2" y1="36.19" x2="156.7" y2="36.19"/><path d="M143.14,36.48a5.35,5.35,0,0,0,.31,2c.16.44.4.66.74.66a.73.73,0,0,0,.49-.21,1.36,1.36,0,0,0,.39-.72,8.89,8.89,0,0,0,.2-2.13,5.88,5.88,0,0,0-.21-1.7,1.62,1.62,0,0,0-.41-.71.67.67,0,0,0-1,.11,2.19,2.19,0,0,0-.43,1.16A11.51,11.51,0,0,0,143.14,36.48Zm-.86-.11a4.51,4.51,0,0,1,.3-1.76,2.55,2.55,0,0,1,.82-1.1,1.42,1.42,0,0,1,.82-.28,1.56,1.56,0,0,1,1.23.7,3.71,3.71,0,0,1,.68,2.35,4.59,4.59,0,0,1-.3,1.76,2.37,2.37,0,0,1-.76,1.05,1.62,1.62,0,0,1-.9.32,1.64,1.64,0,0,1-1.42-1A4.05,4.05,0,0,1,142.28,36.37Z"/><path d="M147.58,38.46a.48.48,0,0,1,.34.14.52.52,0,0,1,.14.35.46.46,0,0,1-.14.34.51.51,0,0,1-.34.14.48.48,0,0,1-.35-.14.46.46,0,0,1-.14-.34.52.52,0,0,1,.14-.35A.48.48,0,0,1,147.58,38.46Z"/><path d="M150,36.3a6.55,6.55,0,0,0-.08,1,2.85,2.85,0,0,0,.15.92,1.61,1.61,0,0,0,.47.78.73.73,0,0,0,.54.21.88.88,0,0,0,.68-.36,1.56,1.56,0,0,0,.31-1,2.71,2.71,0,0,0-.31-1.3.94.94,0,0,0-.85-.54,1,1,0,0,0-.36.07A3,3,0,0,0,150,36.3Zm2.72-3.07v.16a3.08,3.08,0,0,0-.94.23,2.71,2.71,0,0,0-.73.53,3.85,3.85,0,0,0-.59.8,3.75,3.75,0,0,0-.39,1,2.18,2.18,0,0,1,1.27-.43,1.41,1.41,0,0,1,1.05.49,1.8,1.8,0,0,1,.45,1.26,2.25,2.25,0,0,1-.45,1.37,1.69,1.69,0,0,1-1.44.74,1.4,1.4,0,0,1-1-.4,2.65,2.65,0,0,1-.84-2,3.79,3.79,0,0,1,.31-1.52,4.25,4.25,0,0,1,.92-1.28,3.48,3.48,0,0,1,1.14-.75,3.31,3.31,0,0,1,1-.19Z"/><path d="M129.94,74.83H132V75a2.9,2.9,0,0,0-.95.28,1.61,1.61,0,0,0-.76,1.37,1.09,1.09,0,0,0,.28.76.86.86,0,0,0,.63.29.71.71,0,0,0,.5-.19,4.69,4.69,0,0,0,.87-1.29,9.28,9.28,0,0,1,.7-1.15,1.75,1.75,0,0,1,.56-.46,1.49,1.49,0,0,1,.68-.17,1.53,1.53,0,0,1,1.16.53,1.93,1.93,0,0,1,.49,1.35,3.32,3.32,0,0,1,0,.48q0,.13-.15.57a3,3,0,0,0-.14.55.24.24,0,0,0,.07.17.51.51,0,0,0,.26.09v.16h-2v-.16a2.69,2.69,0,0,0,1-.31,1.42,1.42,0,0,0,.54-.59,1.8,1.8,0,0,0,.2-.87,1.28,1.28,0,0,0-.28-.87.9.9,0,0,0-.69-.32,1,1,0,0,0-.45.12,1.45,1.45,0,0,0-.41.38c-.09.12-.27.43-.56.94a8.66,8.66,0,0,1-.69,1.09,1.77,1.77,0,0,1-.56.48,1.37,1.37,0,0,1-.68.17,1.5,1.5,0,0,1-1.1-.49,1.78,1.78,0,0,1-.46-1.25,2.62,2.62,0,0,1,.23-1,1.08,1.08,0,0,0,.11-.35.28.28,0,0,0-.06-.18.57.57,0,0,0-.28-.12Z"/><path d="M130.4,72.07h2.35V70.76a1,1,0,0,0-.15-.68,1,1,0,0,0-.71-.25v-.17H134v.17a2.64,2.64,0,0,0-.56.11.67.67,0,0,0-.24.26,1.36,1.36,0,0,0-.09.56v1.31h2a1.55,1.55,0,0,0,.49,0,.29.29,0,0,0,.13-.12.66.66,0,0,0,.05-.34v-1a2.15,2.15,0,0,0-.08-.72,1,1,0,0,0-.28-.45,3.21,3.21,0,0,0-.81-.55v-.18l1.49.51v4.59h-.16v-.21a.78.78,0,0,0-.1-.39.39.39,0,0,0-.21-.19,1.77,1.77,0,0,0-.58-.06h-3.87a1.41,1.41,0,0,0-.71.11.78.78,0,0,0-.17.53v.21h-.16V69.17l1.31-.06v.17a2.08,2.08,0,0,0-.64.2.79.79,0,0,0-.28.34,2.09,2.09,0,0,0-.06.61Z"/><path d="M133.71,64.45l-2.41,1,2.41,1.05Zm.32-.12v2.31l.95.41a1.64,1.64,0,0,0,.51.14.3.3,0,0,0,.25-.13,1.08,1.08,0,0,0,.13-.55H136v1.87h-.16a1,1,0,0,0-.17-.49,3.31,3.31,0,0,0-.86-.49l-4.9-2.1v-.15l5-2.07a2.51,2.51,0,0,0,.77-.45,1,1,0,0,0,.2-.58H136V64.4h-.16a.87.87,0,0,0-.12-.48.29.29,0,0,0-.25-.12,1.92,1.92,0,0,0-.6.17Z"/><path d="M130.07,54h.16a1,1,0,0,0,.2.48,1.71,1.71,0,0,0,.67.41l5.06,2.08v.16L131,59.32a2,2,0,0,0-.48.24.84.84,0,0,0-.22.27,1.43,1.43,0,0,0-.1.43h-.16V57.83h.16a1.09,1.09,0,0,0,.15.54.32.32,0,0,0,.25.12,1.69,1.69,0,0,0,.69-.21l3.5-1.51-3.46-1.4a2.21,2.21,0,0,0-.7-.21.37.37,0,0,0-.25.12,1.09,1.09,0,0,0-.17.44.26.26,0,0,1,0,.07h-.16Z"/><path d="M135.17,52.26h-1.54a7.68,7.68,0,0,0,.38.87,1.37,1.37,0,0,0,.4.49.79.79,0,0,0,.46.15.8.8,0,0,0,.53-.19.57.57,0,0,0,.21-.43A1.67,1.67,0,0,0,135.17,52.26Zm.28,0a4.54,4.54,0,0,1,.55.79,1.21,1.21,0,0,1,.1.5.88.88,0,0,1-.28.68,1,1,0,0,1-.74.27,1,1,0,0,1-.52-.12,1.8,1.8,0,0,1-.55-.62,8.89,8.89,0,0,1-.64-1.5h-.17a1.36,1.36,0,0,0-.82.2.7.7,0,0,0-.23.55.67.67,0,0,0,.15.44.45.45,0,0,0,.35.17h.25a.42.42,0,0,1,.31.11.31.31,0,0,1,.11.26.33.33,0,0,1-.11.27.43.43,0,0,1-.31.1.86.86,0,0,1-.69-.39,1.64,1.64,0,0,1-.32-1.08,1.91,1.91,0,0,1,.18-.88.87.87,0,0,1,.42-.38,2.55,2.55,0,0,1,.78-.08h2.07a.27.27,0,0,0,.17-.08.15.15,0,0,0,0-.11.51.51,0,0,0,0-.13,3.32,3.32,0,0,0-.33-.36h.25a1.3,1.3,0,0,1,.65.95.44.44,0,0,1-.14.34A.73.73,0,0,1,135.45,52.26Z"/><path d="M129.78,49.17h5.34a1.34,1.34,0,0,0,.5-.06.28.28,0,0,0,.18-.17.81.81,0,0,0,.07-.42H136v2h-.16a.85.85,0,0,0-.06-.38.38.38,0,0,0-.19-.15,1.34,1.34,0,0,0-.5-.06h-3.65a6.67,6.67,0,0,0-.84,0,.41.41,0,0,0-.22.1.31.31,0,0,0,0,.17,1.49,1.49,0,0,0,.06.29l-.15.07-.49-1.19Z"/><path d="M132,44.52h2.44a6.76,6.76,0,0,0,.85,0,.35.35,0,0,0,.22-.11.25.25,0,0,0,.06-.17.83.83,0,0,0-.08-.31l.15-.06.5,1.21v.19h-.85a3.39,3.39,0,0,1,.7.8,1.27,1.27,0,0,1,.15.57,1,1,0,0,1-.19.6,1.07,1.07,0,0,1-.51.34,3.15,3.15,0,0,1-.87.09h-1.79a1,1,0,0,0-.4.06.52.52,0,0,0-.17.19,1.34,1.34,0,0,0-.05.43H132V46.91h2.69a1,1,0,0,0,.74-.19.68.68,0,0,0,.18-.48,1,1,0,0,0-.12-.42,2.72,2.72,0,0,0-.46-.58h-2.28a.66.66,0,0,0-.46.13.86.86,0,0,0-.13.52H132Z"/><path d="M133.27,42.88V41a2.27,2.27,0,0,0-.55.09.87.87,0,0,0-.38.33.83.83,0,0,0-.14.46.86.86,0,0,0,.28.64A1.24,1.24,0,0,0,133.27,42.88Zm.25,0a2.11,2.11,0,0,0,1.41-.44,1.33,1.33,0,0,0,.51-1,1.12,1.12,0,0,0-.22-.67,1.58,1.58,0,0,0-.75-.5l.09-.14a2.15,2.15,0,0,1,1.1.54,1.41,1.41,0,0,1,.49,1.11,1.59,1.59,0,0,1-.56,1.24,2.14,2.14,0,0,1-1.52.52,2.25,2.25,0,0,1-1.61-.53,1.75,1.75,0,0,1-.58-1.34,1.45,1.45,0,0,1,.45-1.1,1.63,1.63,0,0,1,1.19-.44Z"/><g class="cls-18"><rect class="cls-5" x="169.77" y="87.57" width="8.2" height="5.58"/><rect class="cls-6" x="169.77" y="87.57" width="8.2" height="5.58"/></g><g class="cls-18"><line class="cls-7" x1="173.86" y1="93.14" x2="173.86" y2="95.53"/></g><g class="cls-18"><line class="cls-7" x1="173.86" y1="87.57" x2="173.86" y2="80.14"/></g><g class="cls-18"><line class="cls-7" x1="171.81" y1="95.53" x2="175.91" y2="95.53"/></g><g class="cls-18"><line class="cls-7" x1="171.81" y1="80.14" x2="175.91" y2="80.14"/></g><g class="cls-18"><g class="cls-19"><path class="cls-9" d="M173.86,71.8a1.67,1.67,0,0,0,1.69-1.69,1.68,1.68,0,0,0-2.88-1.19,1.66,1.66,0,0,0-.49,1.19,1.69,1.69,0,0,0,.49,1.2A1.72,1.72,0,0,0,173.86,71.8Z"/><path class="cls-10" d="M173.86,71.8a1.67,1.67,0,0,0,1.69-1.69,1.68,1.68,0,0,0-2.88-1.19,1.66,1.66,0,0,0-.49,1.19,1.69,1.69,0,0,0,.49,1.2A1.72,1.72,0,0,0,173.86,71.8Z"/></g><g class="cls-20"><path class="cls-9" d="M173.86,80.35a1.69,1.69,0,0,0,1.2-.49,1.69,1.69,0,0,0-2.39-2.39,1.69,1.69,0,0,0,1.19,2.88Z"/><path class="cls-10" d="M173.86,80.35a1.69,1.69,0,0,0,1.2-.49,1.69,1.69,0,0,0-2.39-2.39,1.69,1.69,0,0,0,1.19,2.88Z"/></g><g class="cls-21"><path class="cls-9" d="M173.86,80.58a1.69,1.69,0,0,0,1.69-1.69,1.69,1.69,0,0,0-2.88-1.2,1.69,1.69,0,0,0-.49,1.2,1.66,1.66,0,0,0,.49,1.19A1.69,1.69,0,0,0,173.86,80.58Z"/><path class="cls-10" d="M173.86,80.58a1.69,1.69,0,0,0,1.69-1.69,1.69,1.69,0,0,0-2.88-1.2,1.69,1.69,0,0,0-.49,1.2,1.66,1.66,0,0,0,.49,1.19A1.69,1.69,0,0,0,173.86,80.58Z"/></g><g class="cls-22"><path class="cls-9" d="M173.86,60.15a1.69,1.69,0,1,0-1.19-2.88,1.69,1.69,0,0,0,0,2.38A1.69,1.69,0,0,0,173.86,60.15Z"/><path class="cls-10" d="M173.86,60.15a1.69,1.69,0,1,0-1.19-2.88,1.69,1.69,0,0,0,0,2.38A1.69,1.69,0,0,0,173.86,60.15Z"/></g><g class="cls-23"><path class="cls-9" d="M173.86,77.9A1.69,1.69,0,1,0,172.67,75a1.69,1.69,0,0,0,0,2.38A1.69,1.69,0,0,0,173.86,77.9Z"/><path class="cls-10" d="M173.86,77.9A1.69,1.69,0,1,0,172.67,75a1.69,1.69,0,0,0,0,2.38A1.69,1.69,0,0,0,173.86,77.9Z"/></g><g class="cls-24"><path class="cls-9" d="M173.86,78.84A1.69,1.69,0,1,0,172.67,76a1.69,1.69,0,0,0,0,2.38A1.69,1.69,0,0,0,173.86,78.84Z"/><path class="cls-10" d="M173.86,78.84A1.69,1.69,0,1,0,172.67,76a1.69,1.69,0,0,0,0,2.38A1.69,1.69,0,0,0,173.86,78.84Z"/></g><g class="cls-25"><path class="cls-9" d="M173.86,77.36a1.69,1.69,0,0,0,1.2-2.88,1.69,1.69,0,0,0-2.39,2.39A1.72,1.72,0,0,0,173.86,77.36Z"/><path class="cls-10" d="M173.86,77.36a1.69,1.69,0,0,0,1.2-2.88,1.69,1.69,0,0,0-2.39,2.39A1.72,1.72,0,0,0,173.86,77.36Z"/></g><g class="cls-26"><path class="cls-9" d="M173.86,69.43a1.69,1.69,0,0,0,1.2-.49,1.69,1.69,0,0,0-2.39-2.39,1.69,1.69,0,0,0,1.19,2.88Z"/><path class="cls-10" d="M173.86,69.43a1.69,1.69,0,0,0,1.2-.49,1.69,1.69,0,0,0-2.39-2.39,1.69,1.69,0,0,0,1.19,2.88Z"/></g><g class="cls-27"><path class="cls-9" d="M173.86,66.33a1.69,1.69,0,0,0,1.2-2.88,1.69,1.69,0,0,0-2.39,2.39A1.72,1.72,0,0,0,173.86,66.33Z"/><path class="cls-10" d="M173.86,66.33a1.69,1.69,0,0,0,1.2-2.88,1.69,1.69,0,0,0-2.39,2.39A1.72,1.72,0,0,0,173.86,66.33Z"/></g><g class="cls-28"><path class="cls-9" d="M173.86,74.62a1.69,1.69,0,0,0,1.2-2.88,1.69,1.69,0,0,0-2.39,2.39A1.72,1.72,0,0,0,173.86,74.62Z"/><path class="cls-10" d="M173.86,74.62a1.69,1.69,0,0,0,1.2-2.88,1.69,1.69,0,0,0-2.39,2.39A1.72,1.72,0,0,0,173.86,74.62Z"/></g><g class="cls-29"><path class="cls-9" d="M173.86,78.84a1.69,1.69,0,0,0,1.69-1.69,1.69,1.69,0,0,0-2.88-1.2,1.69,1.69,0,0,0-.49,1.2,1.66,1.66,0,0,0,.49,1.19A1.69,1.69,0,0,0,173.86,78.84Z"/><path class="cls-10" d="M173.86,78.84a1.69,1.69,0,0,0,1.69-1.69,1.69,1.69,0,0,0-2.88-1.2,1.69,1.69,0,0,0-.49,1.2,1.66,1.66,0,0,0,.49,1.19A1.69,1.69,0,0,0,173.86,78.84Z"/></g><g class="cls-30"><path class="cls-9" d="M173.86,63.87a1.67,1.67,0,0,0,1.69-1.69A1.68,1.68,0,0,0,172.67,61a1.66,1.66,0,0,0-.49,1.19,1.69,1.69,0,0,0,.49,1.2A1.72,1.72,0,0,0,173.86,63.87Z"/><path class="cls-10" d="M173.86,63.87a1.67,1.67,0,0,0,1.69-1.69A1.68,1.68,0,0,0,172.67,61a1.66,1.66,0,0,0-.49,1.19,1.69,1.69,0,0,0,.49,1.2A1.72,1.72,0,0,0,173.86,63.87Z"/></g><g class="cls-31"><path class="cls-9" d="M173.86,72.38a1.69,1.69,0,1,0-1.19-2.88,1.69,1.69,0,0,0,0,2.38A1.69,1.69,0,0,0,173.86,72.38Z"/><path class="cls-10" d="M173.86,72.38a1.69,1.69,0,1,0-1.19-2.88,1.69,1.69,0,0,0,0,2.38A1.69,1.69,0,0,0,173.86,72.38Z"/></g></g><g class="cls-18"><rect class="cls-12" x="197.09" y="68.27" width="8.2" height="19.3"/><rect class="cls-6" x="197.09" y="68.27" width="8.2" height="19.3"/></g><g class="cls-18"><line class="cls-7" x1="201.19" y1="87.56" x2="201.19" y2="95.7"/></g><g class="cls-18"><line class="cls-7" x1="201.19" y1="68.27" x2="201.19" y2="40.77"/></g><g class="cls-18"><line class="cls-7" x1="199.14" y1="95.7" x2="203.24" y2="95.7"/></g><g class="cls-18"><line class="cls-7" x1="199.14" y1="40.77" x2="203.24" y2="40.77"/></g><g class="cls-18"><g class="cls-32"><path class="cls-9" d="M201.19,39.1a1.72,1.72,0,0,0,1.19-.49,1.7,1.7,0,0,0,0-2.39,1.69,1.69,0,1,0-1.19,2.88Z"/><path class="cls-10" d="M201.19,39.1a1.72,1.72,0,0,0,1.19-.49,1.7,1.7,0,0,0,0-2.39,1.69,1.69,0,1,0-1.19,2.88Z"/></g><g class="cls-33"><path class="cls-9" d="M201.19,26.68a1.69,1.69,0,0,0,1.19-.5,1.69,1.69,0,0,0,0-2.38,1.69,1.69,0,1,0-1.19,2.88Z"/><path class="cls-10" d="M201.19,26.68a1.69,1.69,0,0,0,1.19-.5,1.69,1.69,0,0,0,0-2.38,1.69,1.69,0,1,0-1.19,2.88Z"/></g><g class="cls-34"><path class="cls-9" d="M201.19,40.67a1.69,1.69,0,0,0,1.19-2.88A1.69,1.69,0,0,0,200,40.18,1.69,1.69,0,0,0,201.19,40.67Z"/><path class="cls-10" d="M201.19,40.67a1.69,1.69,0,0,0,1.19-2.88A1.69,1.69,0,0,0,200,40.18,1.69,1.69,0,0,0,201.19,40.67Z"/></g><g class="cls-35"><path class="cls-9" d="M201.19,37.78a1.69,1.69,0,0,0,1.19-.5,1.66,1.66,0,0,0,.49-1.19,1.69,1.69,0,0,0-.49-1.2,1.69,1.69,0,0,0-2.88,1.2,1.69,1.69,0,0,0,1.69,1.69Z"/><path class="cls-10" d="M201.19,37.78a1.69,1.69,0,0,0,1.19-.5,1.66,1.66,0,0,0,.49-1.19,1.69,1.69,0,0,0-.49-1.2,1.69,1.69,0,0,0-2.88,1.2,1.69,1.69,0,0,0,1.69,1.69Z"/></g><g class="cls-36"><path class="cls-9" d="M201.19,36.58a1.69,1.69,0,0,0,1.19-.5,1.69,1.69,0,0,0,0-2.38,1.69,1.69,0,1,0-1.19,2.88Z"/><path class="cls-10" d="M201.19,36.58a1.69,1.69,0,0,0,1.19-.5,1.69,1.69,0,0,0,0-2.38,1.69,1.69,0,1,0-1.19,2.88Z"/></g><g class="cls-37"><path class="cls-9" d="M201.19,24.77a1.69,1.69,0,0,0,1.19-.5,1.69,1.69,0,0,0,0-2.38,1.69,1.69,0,1,0-1.19,2.88Z"/><path class="cls-10" d="M201.19,24.77a1.69,1.69,0,0,0,1.19-.5,1.69,1.69,0,0,0,0-2.38,1.69,1.69,0,1,0-1.19,2.88Z"/></g></g><g class="cls-18"><rect class="cls-14" x="224.41" y="87.24" width="8.2" height="5.1"/><rect class="cls-6" x="224.41" y="87.24" width="8.2" height="5.1"/></g><g class="cls-18"><line class="cls-7" x1="228.51" y1="92.34" x2="228.51" y2="95.52"/></g><g class="cls-18"><line class="cls-7" x1="228.51" y1="87.24" x2="228.51" y2="80.32"/></g><g class="cls-18"><line class="cls-7" x1="226.46" y1="95.52" x2="230.56" y2="95.52"/></g><g class="cls-18"><line class="cls-7" x1="226.46" y1="80.32" x2="230.56" y2="80.32"/></g><g class="cls-18"><g class="cls-38"><path class="cls-9" d="M228.51,67a1.65,1.65,0,0,0,1.19-.49,1.67,1.67,0,0,0,.5-1.19,1.69,1.69,0,0,0-3.38,0,1.67,1.67,0,0,0,.5,1.19A1.65,1.65,0,0,0,228.51,67Z"/><path class="cls-10" d="M228.51,67a1.65,1.65,0,0,0,1.19-.49,1.67,1.67,0,0,0,.5-1.19,1.69,1.69,0,0,0-3.38,0,1.67,1.67,0,0,0,.5,1.19A1.65,1.65,0,0,0,228.51,67Z"/></g><g class="cls-39"><path class="cls-9" d="M228.51,63a1.66,1.66,0,0,0,1.19-.5,1.67,1.67,0,0,0,.5-1.19,1.69,1.69,0,0,0-3.38,0,1.67,1.67,0,0,0,.5,1.19A1.66,1.66,0,0,0,228.51,63Z"/><path class="cls-10" d="M228.51,63a1.66,1.66,0,0,0,1.19-.5,1.67,1.67,0,0,0,.5-1.19,1.69,1.69,0,0,0-3.38,0,1.67,1.67,0,0,0,.5,1.19A1.66,1.66,0,0,0,228.51,63Z"/></g><g class="cls-40"><path class="cls-9" d="M228.51,66.34a1.71,1.71,0,1,0-1.19-.5A1.66,1.66,0,0,0,228.51,66.34Z"/><path class="cls-10" d="M228.51,66.34a1.71,1.71,0,1,0-1.19-.5A1.66,1.66,0,0,0,228.51,66.34Z"/></g><g class="cls-41"><path class="cls-9" d="M228.51,76.21a1.71,1.71,0,1,0-1.19-.5A1.66,1.66,0,0,0,228.51,76.21Z"/><path class="cls-10" d="M228.51,76.21a1.71,1.71,0,1,0-1.19-.5A1.66,1.66,0,0,0,228.51,76.21Z"/></g><g class="cls-42"><path class="cls-9" d="M228.51,71.22a1.65,1.65,0,0,0,1.19-.49,1.69,1.69,0,1,0-2.38,0A1.65,1.65,0,0,0,228.51,71.22Z"/><path class="cls-10" d="M228.51,71.22a1.65,1.65,0,0,0,1.19-.49,1.69,1.69,0,1,0-2.38,0A1.65,1.65,0,0,0,228.51,71.22Z"/></g><g class="cls-43"><path class="cls-9" d="M228.51,81.07a1.66,1.66,0,0,0,1.19-.5,1.67,1.67,0,0,0,.5-1.19,1.69,1.69,0,0,0-3.38,0,1.67,1.67,0,0,0,.5,1.19A1.66,1.66,0,0,0,228.51,81.07Z"/><path class="cls-10" d="M228.51,81.07a1.66,1.66,0,0,0,1.19-.5,1.67,1.67,0,0,0,.5-1.19,1.69,1.69,0,0,0-3.38,0,1.67,1.67,0,0,0,.5,1.19A1.66,1.66,0,0,0,228.51,81.07Z"/></g><g class="cls-44"><path class="cls-9" d="M228.51,79.43a1.66,1.66,0,0,0,1.19-.5,1.67,1.67,0,0,0,.5-1.19,1.69,1.69,0,0,0-3.38,0,1.67,1.67,0,0,0,.5,1.19A1.66,1.66,0,0,0,228.51,79.43Z"/><path class="cls-10" d="M228.51,79.43a1.66,1.66,0,0,0,1.19-.5,1.67,1.67,0,0,0,.5-1.19,1.69,1.69,0,0,0-3.38,0,1.67,1.67,0,0,0,.5,1.19A1.66,1.66,0,0,0,228.51,79.43Z"/></g><g class="cls-45"><path class="cls-9" d="M228.51,80.78a1.66,1.66,0,0,0,1.19-.5,1.67,1.67,0,0,0,.5-1.19,1.69,1.69,0,0,0-3.38,0,1.67,1.67,0,0,0,.5,1.19A1.66,1.66,0,0,0,228.51,80.78Z"/><path class="cls-10" d="M228.51,80.78a1.66,1.66,0,0,0,1.19-.5,1.67,1.67,0,0,0,.5-1.19,1.69,1.69,0,0,0-3.38,0,1.67,1.67,0,0,0,.5,1.19A1.66,1.66,0,0,0,228.51,80.78Z"/></g><g class="cls-46"><path class="cls-9" d="M228.51,80.48a1.68,1.68,0,0,0,1.19-2.88,1.69,1.69,0,0,0-2.38,0,1.69,1.69,0,0,0,1.19,2.88Z"/><path class="cls-10" d="M228.51,80.48a1.68,1.68,0,0,0,1.19-2.88,1.69,1.69,0,0,0-2.38,0,1.69,1.69,0,0,0,1.19,2.88Z"/></g><g class="cls-47"><path class="cls-9" d="M228.51,73.64a1.68,1.68,0,0,0,1.19-2.88,1.69,1.69,0,0,0-2.38,0,1.69,1.69,0,0,0,1.19,2.88Z"/><path class="cls-10" d="M228.51,73.64a1.68,1.68,0,0,0,1.19-2.88,1.69,1.69,0,0,0-2.38,0,1.69,1.69,0,0,0,1.19,2.88Z"/></g><g class="cls-48"><path class="cls-9" d="M228.51,78.45a1.71,1.71,0,1,0-1.19-.5A1.66,1.66,0,0,0,228.51,78.45Z"/><path class="cls-10" d="M228.51,78.45a1.71,1.71,0,1,0-1.19-.5A1.66,1.66,0,0,0,228.51,78.45Z"/></g><g class="cls-49"><path class="cls-9" d="M228.51,72.69A1.71,1.71,0,0,0,230.2,71a1.69,1.69,0,0,0-3.38,0,1.71,1.71,0,0,0,1.69,1.69Z"/><path class="cls-10" d="M228.51,72.69A1.71,1.71,0,0,0,230.2,71a1.69,1.69,0,0,0-3.38,0,1.71,1.71,0,0,0,1.69,1.69Z"/></g><g class="cls-50"><path class="cls-9" d="M228.51,79.17a1.65,1.65,0,0,0,1.19-.49,1.69,1.69,0,1,0-2.38,0A1.65,1.65,0,0,0,228.51,79.17Z"/><path class="cls-10" d="M228.51,79.17a1.65,1.65,0,0,0,1.19-.49,1.69,1.69,0,1,0-2.38,0A1.65,1.65,0,0,0,228.51,79.17Z"/></g></g><g class="cls-18"><line class="cls-16" x1="169.77" y1="90.35" x2="177.96" y2="90.35"/></g><g class="cls-18"><line class="cls-16" x1="197.09" y1="79.63" x2="205.29" y2="79.63"/></g><g class="cls-18"><line class="cls-16" x1="224.41" y1="90.74" x2="232.61" y2="90.74"/></g><line class="cls-17" x1="160.2" y1="99.33" x2="160.2" y2="19.45"/><line class="cls-17" x1="242.17" y1="99.33" x2="242.17" y2="19.45"/><line class="cls-17" x1="160.2" y1="99.33" x2="242.17" y2="99.33"/><line class="cls-17" x1="160.2" y1="19.45" x2="242.17" y2="19.45"/><path d="M173.93,7.36V9.42h-.16a2.49,2.49,0,0,0-.28-.95,1.64,1.64,0,0,0-.58-.56,1.72,1.72,0,0,0-.79-.2,1.09,1.09,0,0,0-.75.28.84.84,0,0,0-.3.63.71.71,0,0,0,.19.5,4.63,4.63,0,0,0,1.3.87,9.77,9.77,0,0,1,1.14.7,1.78,1.78,0,0,1,.47.56,1.48,1.48,0,0,1,.16.68,1.55,1.55,0,0,1-.52,1.16,1.93,1.93,0,0,1-1.35.49,3.6,3.6,0,0,1-.49,0l-.57-.15a2.74,2.74,0,0,0-.54-.14.3.3,0,0,0-.18.06.6.6,0,0,0-.09.27h-.16v-2h.16a2.91,2.91,0,0,0,.31,1,1.48,1.48,0,0,0,.59.54,1.84,1.84,0,0,0,.88.2,1.2,1.2,0,0,0,.86-.29.85.85,0,0,0,.33-.68,1,1,0,0,0-.13-.45,1.32,1.32,0,0,0-.38-.41c-.12-.09-.43-.27-.93-.56a7.36,7.36,0,0,1-1.09-.69,1.71,1.71,0,0,1-.49-.56,1.39,1.39,0,0,1-.16-.68,1.49,1.49,0,0,1,.48-1.1,1.81,1.81,0,0,1,1.26-.46,2.62,2.62,0,0,1,1,.23,1.16,1.16,0,0,0,.35.11.26.26,0,0,0,.18-.06.49.49,0,0,0,.12-.28Z"/><path d="M176.7,7.82v2.35H178a1.06,1.06,0,0,0,.69-.15,1,1,0,0,0,.25-.71h.17v2.07h-.17a2.45,2.45,0,0,0-.12-.56.56.56,0,0,0-.26-.24,1.36,1.36,0,0,0-.56-.09h-1.3v2a2.21,2.21,0,0,0,0,.49.37.37,0,0,0,.12.13.66.66,0,0,0,.34.05h1a2.21,2.21,0,0,0,.73-.08.94.94,0,0,0,.44-.28,3.4,3.4,0,0,0,.56-.81h.18l-.52,1.49H175v-.16h.21a.82.82,0,0,0,.4-.1.43.43,0,0,0,.19-.21,2.26,2.26,0,0,0,0-.58V8.53a1.41,1.41,0,0,0-.11-.71.78.78,0,0,0-.53-.17H175V7.49h4.59l.07,1.31h-.17a2.33,2.33,0,0,0-.21-.64.76.76,0,0,0-.33-.28,2.22,2.22,0,0,0-.62-.06Z"/><path d="M184.31,11.13l-1-2.41-1,2.41Zm.13.32h-2.32l-.4,1a1.47,1.47,0,0,0-.15.51.3.3,0,0,0,.13.25,1.09,1.09,0,0,0,.56.13v.16h-1.87v-.16a1,1,0,0,0,.48-.17,3,3,0,0,0,.5-.86l2.09-4.9h.16l2.07,5a2.16,2.16,0,0,0,.45.77.92.92,0,0,0,.57.2v.16h-2.35v-.16a.85.85,0,0,0,.48-.12.3.3,0,0,0,.13-.25,2.16,2.16,0,0,0-.17-.6Z"/><path d="M194,7.36l.13,2H194a2.47,2.47,0,0,0-.79-1.3,1.86,1.86,0,0,0-1.2-.41,2,2,0,0,0-1.08.31,1.94,1.94,0,0,0-.76.95,4.36,4.36,0,0,0-.27,1.64,3.33,3.33,0,0,0,.26,1.4,1.81,1.81,0,0,0,.79.91,2.11,2.11,0,0,0,1.18.32,2,2,0,0,0,1-.25,3.25,3.25,0,0,0,1-1l.14.1a3.15,3.15,0,0,1-1.05,1.16,2.77,2.77,0,0,1-1.42.36,2.67,2.67,0,0,1-2.29-1.09,3.11,3.11,0,0,1-.61-1.93,3.43,3.43,0,0,1,.4-1.64,2.93,2.93,0,0,1,1.11-1.15,3,3,0,0,1,1.53-.41,2.8,2.8,0,0,1,1.27.31.61.61,0,0,0,.26.1.29.29,0,0,0,.21-.09.64.64,0,0,0,.16-.32Z"/><path d="M196.7,9.59a.89.89,0,0,0-.47.14.93.93,0,0,0-.38.49,2.28,2.28,0,0,0-.14.89,3,3,0,0,0,.34,1.51,1,1,0,0,0,.93.64.89.89,0,0,0,.7-.35A2,2,0,0,0,198,11.7a2.85,2.85,0,0,0-.47-1.69A1,1,0,0,0,196.7,9.59Zm.13-.28a1.79,1.79,0,0,1,1.47.69,2.24,2.24,0,0,1,.47,1.36,2.64,2.64,0,0,1-.26,1.1,1.85,1.85,0,0,1-.72.83,1.91,1.91,0,0,1-1,.28,1.7,1.7,0,0,1-1.45-.72,2.21,2.21,0,0,1-.45-1.37,2.45,2.45,0,0,1,.27-1.1,1.91,1.91,0,0,1,.72-.81A1.86,1.86,0,0,1,196.83,9.31Z"/><path d="M200.56,10.16l.52-.5a1.54,1.54,0,0,1,.42-.26,1.44,1.44,0,0,1,.45-.09,1,1,0,0,1,.65.22,1.08,1.08,0,0,1,.37.63,2.94,2.94,0,0,1,.76-.69,1.38,1.38,0,0,1,.64-.16,1,1,0,0,1,.57.16,1.16,1.16,0,0,1,.4.54,2.55,2.55,0,0,1,.1.8v1.73a1.58,1.58,0,0,0,.05.52.31.31,0,0,0,.16.16.77.77,0,0,0,.39.07v.16h-2v-.16h.08a.66.66,0,0,0,.4-.1.44.44,0,0,0,.15-.23,2.75,2.75,0,0,0,0-.42V10.81a1.66,1.66,0,0,0-.12-.7.62.62,0,0,0-.55-.28,1.17,1.17,0,0,0-.47.12,2.26,2.26,0,0,0-.56.43v2.16a1.39,1.39,0,0,0,0,.51.29.29,0,0,0,.17.17.9.9,0,0,0,.43.07v.16h-2v-.16a1,1,0,0,0,.46-.07.52.52,0,0,0,.18-.25,2.82,2.82,0,0,0,0-.43V10.81a1.42,1.42,0,0,0-.15-.71.64.64,0,0,0-.54-.28,1,1,0,0,0-.47.13,1.51,1.51,0,0,0-.56.43v2.16a1.64,1.64,0,0,0,.05.51.36.36,0,0,0,.16.18,1.08,1.08,0,0,0,.44.06v.16h-2v-.16a.8.8,0,0,0,.37-.06.29.29,0,0,0,.17-.19,1.37,1.37,0,0,0,.06-.5V11a6.36,6.36,0,0,0,0-.85.34.34,0,0,0-.1-.2.24.24,0,0,0-.18-.06.64.64,0,0,0-.28.07l-.08-.16,1.22-.49h.19Z"/><path d="M207.48,10.52V12a2.94,2.94,0,0,0,0,.64.82.82,0,0,0,.3.45,1,1,0,0,0,.6.19.84.84,0,0,0,.71-.35,2,2,0,0,0,.36-1.26,2.22,2.22,0,0,0-.4-1.42.87.87,0,0,0-.67-.34.94.94,0,0,0-.42.11A2.25,2.25,0,0,0,207.48,10.52Zm-1.4-.7,1.24-.49h.16v.93a2.14,2.14,0,0,1,.63-.73,1.09,1.09,0,0,1,.66-.22,1.29,1.29,0,0,1,1,.47,2.27,2.27,0,0,1,.5,1.51,2.52,2.52,0,0,1-.61,1.73,1.55,1.55,0,0,1-1.23.55,1.7,1.7,0,0,1-.57-.1,1.19,1.19,0,0,1-.39-.25v1.21a1.72,1.72,0,0,0,.05.52.42.42,0,0,0,.17.18,1,1,0,0,0,.46.07v.17h-2.09V15.2h.09a.9.9,0,0,0,.42-.09.34.34,0,0,0,.12-.16,1.88,1.88,0,0,0,.05-.55V10.61a2.1,2.1,0,0,0,0-.49.27.27,0,0,0-.11-.16.34.34,0,0,0-.2-.06.89.89,0,0,0-.27.07Z"/><path d="M213.15,12.59V11.05c-.45.18-.74.3-.87.37a1.49,1.49,0,0,0-.49.41.78.78,0,0,0-.14.46.79.79,0,0,0,.18.53.58.58,0,0,0,.44.21A1.68,1.68,0,0,0,213.15,12.59Zm0,.28a5.13,5.13,0,0,1-.78.55,1.29,1.29,0,0,1-.51.1.88.88,0,0,1-.68-.28,1,1,0,0,1-.27-.74A1,1,0,0,1,211,12a1.81,1.81,0,0,1,.62-.56,10.52,10.52,0,0,1,1.5-.63v-.17a1.29,1.29,0,0,0-.2-.82.69.69,0,0,0-.55-.23.62.62,0,0,0-.44.15.45.45,0,0,0-.17.35v.25a.42.42,0,0,1-.11.31.35.35,0,0,1-.26.11.37.37,0,0,1-.27-.11.43.43,0,0,1-.1-.31.92.92,0,0,1,.39-.7,1.69,1.69,0,0,1,1.08-.31,1.89,1.89,0,0,1,.88.18.82.82,0,0,1,.38.42,2.55,2.55,0,0,1,.08.78v1.37a5.14,5.14,0,0,0,0,.7.23.23,0,0,0,.07.17.16.16,0,0,0,.12,0l.12,0a3.32,3.32,0,0,0,.36-.33v.25c-.33.44-.65.65-.94.65a.47.47,0,0,1-.35-.14A.73.73,0,0,1,213.15,12.87Z"/><path d="M216,9.31v.9c.33-.59.67-.9,1-.9a.61.61,0,0,1,.4.14.46.46,0,0,1,.16.35.36.36,0,0,1-.12.28.34.34,0,0,1-.27.12.53.53,0,0,1-.34-.15.59.59,0,0,0-.28-.16.28.28,0,0,0-.17.1,2.2,2.2,0,0,0-.41.59v1.93a1.13,1.13,0,0,0,.08.51.45.45,0,0,0,.21.2.89.89,0,0,0,.41.07v.16h-2.06v-.16a1,1,0,0,0,.46-.09.44.44,0,0,0,.15-.23,1.73,1.73,0,0,0,0-.43V11a5.43,5.43,0,0,0,0-.83.3.3,0,0,0-.11-.2.29.29,0,0,0-.19-.06.72.72,0,0,0-.3.07l-.05-.16,1.23-.49Z"/><path d="M219.25,9.31v3.23a1.7,1.7,0,0,0,.05.5.32.32,0,0,0,.17.19.82.82,0,0,0,.38.06v.16H217.9v-.16a.92.92,0,0,0,.4-.06.38.38,0,0,0,.15-.19,1.37,1.37,0,0,0,.06-.5V11c0-.43,0-.72,0-.85a.38.38,0,0,0-.1-.19.28.28,0,0,0-.18-.06.79.79,0,0,0-.3.07l-.06-.16,1.21-.49Zm-.37-2.11a.46.46,0,0,1,.32.13.45.45,0,0,1,.12.31.45.45,0,0,1-.12.32.42.42,0,0,1-.32.13.42.42,0,0,1-.31-.13.43.43,0,0,1-.14-.32.42.42,0,0,1,.13-.31A.48.48,0,0,1,218.88,7.2Z"/><path d="M223,9.31v1.37h-.15a1.75,1.75,0,0,0-.42-.88.94.94,0,0,0-.66-.24.8.8,0,0,0-.51.16.52.52,0,0,0-.19.36.63.63,0,0,0,.15.43,1.46,1.46,0,0,0,.55.38l.64.31c.6.3.89.68.89,1.15a1.06,1.06,0,0,1-.41.88,1.46,1.46,0,0,1-.93.34,3.45,3.45,0,0,1-.84-.13.85.85,0,0,0-.25,0,.16.16,0,0,0-.15.1h-.14V12.07h.14a1.65,1.65,0,0,0,.47.94,1.11,1.11,0,0,0,.78.3.65.65,0,0,0,.49-.18.58.58,0,0,0,.2-.43.68.68,0,0,0-.22-.5,3.68,3.68,0,0,0-.85-.52,2.17,2.17,0,0,1-.83-.58.93.93,0,0,1-.2-.63,1.13,1.13,0,0,1,.34-.83,1.26,1.26,0,0,1,.88-.33,2.43,2.43,0,0,1,.58.1,1.27,1.27,0,0,0,.3.06.15.15,0,0,0,.1,0,.31.31,0,0,0,.09-.13Z"/><path d="M225.69,9.59a.91.91,0,0,0-.84.63,2.26,2.26,0,0,0-.15.89,3,3,0,0,0,.35,1.51,1,1,0,0,0,.92.64.89.89,0,0,0,.71-.35A2,2,0,0,0,227,11.7a2.85,2.85,0,0,0-.46-1.69A1,1,0,0,0,225.69,9.59Zm.14-.28a1.79,1.79,0,0,1,1.47.69,2.23,2.23,0,0,1,.46,1.36,2.64,2.64,0,0,1-.26,1.1,1.77,1.77,0,0,1-.71.83,1.94,1.94,0,0,1-1,.28,1.7,1.7,0,0,1-1.44-.72,2.21,2.21,0,0,1-.45-1.37,2.45,2.45,0,0,1,.27-1.1,1.91,1.91,0,0,1,.72-.81A1.86,1.86,0,0,1,225.83,9.31Z"/><path d="M229.54,10.16a1.92,1.92,0,0,1,1.35-.85,1,1,0,0,1,.56.16,1.14,1.14,0,0,1,.38.54,2.73,2.73,0,0,1,.09.81v1.72a1.25,1.25,0,0,0,.07.52.28.28,0,0,0,.15.17.92.92,0,0,0,.4.06v.16h-2v-.16h.09a.69.69,0,0,0,.38-.08.53.53,0,0,0,.16-.26,2.57,2.57,0,0,0,0-.41V10.89a1.71,1.71,0,0,0-.14-.79.54.54,0,0,0-.49-.25,1.42,1.42,0,0,0-1,.57v2.12a1.64,1.64,0,0,0,0,.5.36.36,0,0,0,.17.19,1.08,1.08,0,0,0,.44.06v.16h-2v-.16h.09a.46.46,0,0,0,.41-.16,1.08,1.08,0,0,0,.11-.59V11.05a6.42,6.42,0,0,0,0-.89.35.35,0,0,0-.1-.21.24.24,0,0,0-.18-.06.65.65,0,0,0-.29.07l-.07-.16,1.22-.49h.19Z"/></svg>